M48
; DRILL file KiCad 10.0.0 date 2026-05-09T14:27:33
; FORMAT={-:-/ absolute / metric / decimal}
; #@! TF.CreationDate,2026-05-09T14:27:33-04:00
; #@! TF.GenerationSoftware,Kicad,Pcbnew,10.0.0
; #@! TF.FileFunction,Plated,1,2,PTH
FMAT,2
METRIC
; #@! TA.AperFunction,Plated,PTH,ViaDrill
T1C0.300
; #@! TA.AperFunction,Plated,PTH,ComponentDrill
T2C1.000
%
G90
G05
T1
X123.91Y-102.5
X136.802Y-109.198
T2
X111.21Y-73.5
X111.21Y-98.5
X113.75Y-73.5
X113.75Y-98.5
X116.29Y-73.5
X116.29Y-98.5
X116.295Y-104.795
X116.295Y-107.335
X116.295Y-109.875
X116.295Y-112.415
X116.295Y-114.955
X116.295Y-117.495
X116.295Y-120.035
X116.295Y-122.575
X118.83Y-73.5
X118.83Y-98.5
X121.37Y-73.5
X121.37Y-98.5
X123.91Y-98.5
X126.45Y-98.5
X128.99Y-98.5
X131.53Y-98.5
X139.89Y-82.45
X139.89Y-84.99
X139.89Y-87.53
X139.89Y-90.07
X139.89Y-92.61
X139.89Y-95.15
X139.89Y-97.69
X139.89Y-100.23
X139.89Y-102.77
X139.89Y-105.31
X139.89Y-107.85
X139.89Y-110.39
X139.89Y-112.93
X139.89Y-115.47
X139.89Y-118.01
X155.13Y-82.45
X155.13Y-84.99
X155.13Y-87.53
X155.13Y-90.07
X155.13Y-92.61
X155.13Y-95.15
X155.13Y-97.69
X155.13Y-100.23
X155.13Y-102.77
X155.13Y-105.31
X155.13Y-107.85
X155.13Y-110.39
X155.13Y-112.93
X155.13Y-115.47
X155.13Y-118.01
X164.96Y-104.5
X167.5Y-104.5
X170.04Y-104.5
X172.58Y-104.5
X175.12Y-104.5
X177.66Y-104.5
X192.76Y-79.3
X192.76Y-81.84
X192.76Y-84.38
X192.76Y-86.92
X192.76Y-89.46
X192.76Y-92.0
X192.76Y-94.54
X192.76Y-97.08
X192.76Y-99.62
X192.76Y-102.16
X192.76Y-104.7
X192.76Y-107.24
X192.76Y-109.78
X192.76Y-112.32
X192.76Y-114.86
X208.0Y-79.3
X208.0Y-81.84
X208.0Y-84.38
X208.0Y-86.92
X208.0Y-89.46
X208.0Y-92.0
X208.0Y-94.54
X208.0Y-97.08
X208.0Y-99.62
X208.0Y-102.16
X208.0Y-104.7
X208.0Y-107.24
X208.0Y-109.78
X208.0Y-112.32
X208.0Y-114.86
T2
G00X127.55Y-110.65
M15
G01X130.15Y-110.65
M16
G05
G00X127.75Y-116.95
M15
G01X129.95Y-116.95
M16
G05
G00X133.65Y-112.45
M15
G01X133.65Y-114.65
M16
G05
M30
