%TF.GenerationSoftware,KiCad,Pcbnew,10.0.0*%
%TF.CreationDate,2026-05-09T14:27:28-04:00*%
%TF.ProjectId,logan,6c6f6761-6e2e-46b6-9963-61645f706362,rev?*%
%TF.SameCoordinates,Original*%
%TF.FileFunction,Copper,L2,Bot*%
%TF.FilePolarity,Positive*%
%FSLAX46Y46*%
G04 Gerber Fmt 4.6, Leading zero omitted, Abs format (unit mm)*
G04 Created by KiCad (PCBNEW 10.0.0) date 2026-05-09 14:27:28*
%MOMM*%
%LPD*%
G01*
G04 APERTURE LIST*
%TA.AperFunction,ComponentPad*%
%ADD10R,1.600000X1.600000*%
%TD*%
%TA.AperFunction,ComponentPad*%
%ADD11O,1.600000X1.600000*%
%TD*%
%TA.AperFunction,ComponentPad*%
%ADD12R,1.700000X1.700000*%
%TD*%
%TA.AperFunction,ComponentPad*%
%ADD13C,1.700000*%
%TD*%
%TA.AperFunction,ComponentPad*%
%ADD14O,1.700000X1.700000*%
%TD*%
%TA.AperFunction,ComponentPad*%
%ADD15R,4.600000X2.000000*%
%TD*%
%TA.AperFunction,ComponentPad*%
%ADD16O,4.200000X2.000000*%
%TD*%
%TA.AperFunction,ComponentPad*%
%ADD17O,2.000000X4.200000*%
%TD*%
%TA.AperFunction,ViaPad*%
%ADD18C,0.600000*%
%TD*%
%TA.AperFunction,Conductor*%
%ADD19C,0.500000*%
%TD*%
%TA.AperFunction,Conductor*%
%ADD20C,0.200000*%
%TD*%
G04 APERTURE END LIST*
D10*
%TO.P,A2,1,D1/TX_1*%
%TO.N,/A1_D1{slash}TX*%
X192760000Y-79300000D03*
D11*
%TO.P,A2,2,D0/RX_2*%
%TO.N,/A0_TX*%
X192760000Y-81840000D03*
%TO.P,A2,3,~{RESET}_3*%
%TO.N,/~{A1_RESET}*%
X192760000Y-84380000D03*
%TO.P,A2,4,GND_4*%
%TO.N,Earth*%
X192760000Y-86920000D03*
%TO.P,A2,5,D2_5*%
%TO.N,/A1_D2*%
X192760000Y-89460000D03*
%TO.P,A2,6,D3_6*%
%TO.N,/A1_D3*%
X192760000Y-92000000D03*
%TO.P,A2,7,D4_7*%
%TO.N,/SD_CS*%
X192760000Y-94540000D03*
%TO.P,A2,8,D5_8*%
%TO.N,/A1_D5*%
X192760000Y-97080000D03*
%TO.P,A2,9,D6_9*%
%TO.N,/A1_D6*%
X192760000Y-99620000D03*
%TO.P,A2,10,D7_10*%
%TO.N,/A1_D7*%
X192760000Y-102160000D03*
%TO.P,A2,11,D8_11*%
%TO.N,/A1_D8*%
X192760000Y-104700000D03*
%TO.P,A2,12,D9_12*%
%TO.N,/A1_D9*%
X192760000Y-107240000D03*
%TO.P,A2,13,D10_13*%
%TO.N,/A1_D10*%
X192760000Y-109780000D03*
%TO.P,A2,14,D11_14*%
%TO.N,/SD_MOSI*%
X192760000Y-112320000D03*
%TO.P,A2,15,D12_15*%
%TO.N,/SD_MISO*%
X192760000Y-114860000D03*
%TO.P,A2,16,D13_16*%
%TO.N,/SD_SCK*%
X208000000Y-114860000D03*
%TO.P,A2,17,3V3_17*%
%TO.N,A1_3V3*%
X208000000Y-112320000D03*
%TO.P,A2,18,AREF_18*%
%TO.N,/A1_AREF*%
X208000000Y-109780000D03*
%TO.P,A2,19,A0_19*%
%TO.N,/A1_A0*%
X208000000Y-107240000D03*
%TO.P,A2,20,A1_20*%
%TO.N,/A1_A1*%
X208000000Y-104700000D03*
%TO.P,A2,21,A2_21*%
%TO.N,/A1_A2*%
X208000000Y-102160000D03*
%TO.P,A2,22,A3_22*%
%TO.N,/A1_A3*%
X208000000Y-99620000D03*
%TO.P,A2,23,A4_23*%
%TO.N,/A1_A4*%
X208000000Y-97080000D03*
%TO.P,A2,24,A5_24*%
%TO.N,/A1_A5*%
X208000000Y-94540000D03*
%TO.P,A2,25,A6_25*%
%TO.N,/A1_A6*%
X208000000Y-92000000D03*
%TO.P,A2,26,A7_26*%
%TO.N,/A1_A7*%
X208000000Y-89460000D03*
%TO.P,A2,27,+5V_27*%
%TO.N,/A1_+5V*%
X208000000Y-86920000D03*
%TO.P,A2,28,~{RESET}_28*%
%TO.N,/~{A1_RESET}*%
X208000000Y-84380000D03*
%TO.P,A2,29,GND_29*%
%TO.N,Earth*%
X208000000Y-81840000D03*
%TO.P,A2,30,VIN_30*%
%TO.N,/NANO_VIN*%
X208000000Y-79300000D03*
%TD*%
D12*
%TO.P,J6,1,Pin_1_1*%
%TO.N,/D6*%
X116295000Y-104795000D03*
D13*
%TO.P,J6,2,Pin_2_2*%
%TO.N,/D7*%
X116295000Y-107335000D03*
%TO.P,J6,3,Pin_3_3*%
%TO.N,/D8*%
X116295000Y-109875000D03*
%TO.P,J6,4,Pin_4_4*%
%TO.N,/D9*%
X116295000Y-112415000D03*
%TO.P,J6,5,Pin_5_5*%
%TO.N,Earth*%
X116295000Y-114955000D03*
%TO.P,J6,6,Pin_6_6*%
X116295000Y-117495000D03*
%TO.P,J6,7,Pin_7_7*%
X116295000Y-120035000D03*
%TO.P,J6,8,Pin_8_8*%
X116295000Y-122575000D03*
%TD*%
D12*
%TO.P,J2,1,Pin_1_1*%
%TO.N,Earth*%
X164960000Y-104500000D03*
D14*
%TO.P,J2,2,Pin_2_2*%
%TO.N,/SD_MISO*%
X167500000Y-104500000D03*
%TO.P,J2,3,Pin_3_3*%
%TO.N,/SD_SCK*%
X170040000Y-104500000D03*
%TO.P,J2,4,Pin_4_4*%
%TO.N,/SD_MOSI*%
X172580000Y-104500000D03*
%TO.P,J2,5,Pin_5_5*%
%TO.N,/SD_CS*%
X175120000Y-104500000D03*
%TO.P,J2,6,Pin_6_6*%
%TO.N,A1_3V3*%
X177660000Y-104500000D03*
%TD*%
D10*
%TO.P,A1,1,D1/TX_1*%
%TO.N,/A0_TX*%
X139890000Y-82450000D03*
D11*
%TO.P,A1,2,D0/RX_2*%
%TO.N,/D0{slash}RX*%
X139890000Y-84990000D03*
%TO.P,A1,3,~{RESET}_3*%
%TO.N,/~{RESET}*%
X139890000Y-87530000D03*
%TO.P,A1,4,GND_4*%
%TO.N,Earth*%
X139890000Y-90070000D03*
%TO.P,A1,5,D2_5*%
%TO.N,/LORA_RST*%
X139890000Y-92610000D03*
%TO.P,A1,6,D3_6*%
%TO.N,/G0*%
X139890000Y-95150000D03*
%TO.P,A1,7,D4_7*%
%TO.N,/LORA_CS*%
X139890000Y-97690000D03*
%TO.P,A1,8,D5_8*%
%TO.N,/D5*%
X139890000Y-100230000D03*
%TO.P,A1,9,D6_9*%
%TO.N,/D6*%
X139890000Y-102770000D03*
%TO.P,A1,10,D7_10*%
%TO.N,/D7*%
X139890000Y-105310000D03*
%TO.P,A1,11,D8_11*%
%TO.N,/D8*%
X139890000Y-107850000D03*
%TO.P,A1,12,D9_12*%
%TO.N,/D9*%
X139890000Y-110390000D03*
%TO.P,A1,13,D10_13*%
%TO.N,/D10*%
X139890000Y-112930000D03*
%TO.P,A1,14,D11_14*%
%TO.N,/MOSI*%
X139890000Y-115470000D03*
%TO.P,A1,15,D12_15*%
%TO.N,/MISO*%
X139890000Y-118010000D03*
%TO.P,A1,16,D13_16*%
%TO.N,/SCK*%
X155130000Y-118010000D03*
%TO.P,A1,17,3V3_17*%
%TO.N,+3.3V*%
X155130000Y-115470000D03*
%TO.P,A1,18,AREF_18*%
%TO.N,/AREF*%
X155130000Y-112930000D03*
%TO.P,A1,19,A0_19*%
%TO.N,/A0*%
X155130000Y-110390000D03*
%TO.P,A1,20,A1_20*%
%TO.N,/A1*%
X155130000Y-107850000D03*
%TO.P,A1,21,A2_21*%
%TO.N,/A2*%
X155130000Y-105310000D03*
%TO.P,A1,22,A3_22*%
%TO.N,/A3*%
X155130000Y-102770000D03*
%TO.P,A1,23,A4_23*%
%TO.N,/A4*%
X155130000Y-100230000D03*
%TO.P,A1,24,A5_24*%
%TO.N,/A5*%
X155130000Y-97690000D03*
%TO.P,A1,25,A6_25*%
%TO.N,/A6*%
X155130000Y-95150000D03*
%TO.P,A1,26,A7_26*%
%TO.N,/A7*%
X155130000Y-92610000D03*
%TO.P,A1,27,+5V_27*%
%TO.N,+5V*%
X155130000Y-90070000D03*
%TO.P,A1,28,~{RESET}_28*%
%TO.N,/~{RESET}*%
X155130000Y-87530000D03*
%TO.P,A1,29,GND_29*%
%TO.N,Earth*%
X155130000Y-84990000D03*
%TO.P,A1,30,VIN_30*%
%TO.N,/NANO_VIN*%
X155130000Y-82450000D03*
%TD*%
D12*
%TO.P,J4,1,Pin_1_1*%
%TO.N,+5V*%
X111210000Y-98500000D03*
D14*
%TO.P,J4,2,Pin_2_2*%
%TO.N,Earth*%
X113750000Y-98500000D03*
%TO.P,J4,3,Pin_3_3*%
%TO.N,unconnected-(J4-Pin_3-Pad3)*%
X116290000Y-98500000D03*
%TO.P,J4,4,Pin_4_4*%
%TO.N,/G0*%
X118830000Y-98500000D03*
%TO.P,J4,5,Pin_5_5*%
%TO.N,/SCK*%
X121370000Y-98500000D03*
%TO.P,J4,6,Pin_6_6*%
%TO.N,/MISO*%
X123910000Y-98500000D03*
%TO.P,J4,7,Pin_7_7*%
%TO.N,/MOSI*%
X126450000Y-98500000D03*
%TO.P,J4,8,Pin_8_8*%
%TO.N,/LORA_CS*%
X128990000Y-98500000D03*
%TO.P,J4,9,Pin_9_9*%
%TO.N,/LORA_RST*%
X131530000Y-98500000D03*
%TD*%
D15*
%TO.P,J1,1*%
%TO.N,/NANO_VIN*%
X128850000Y-110650000D03*
D16*
%TO.P,J1,2*%
%TO.N,Earth*%
X128850000Y-116950000D03*
D17*
%TO.P,J1,3*%
X133650000Y-113550000D03*
%TD*%
D12*
%TO.P,J5,1,Pin_1_1*%
%TO.N,unconnected-(J5-Pin_1-Pad1)*%
X111210000Y-73500000D03*
D14*
%TO.P,J5,2,Pin_2_2*%
%TO.N,unconnected-(J5-Pin_2-Pad2)*%
X113750000Y-73500000D03*
%TO.P,J5,3,Pin_3_3*%
%TO.N,unconnected-(J5-Pin_3-Pad3)*%
X116290000Y-73500000D03*
%TO.P,J5,4,Pin_4_4*%
%TO.N,unconnected-(J5-Pin_4-Pad4)*%
X118830000Y-73500000D03*
%TO.P,J5,5,Pin_5_5*%
%TO.N,unconnected-(J5-Pin_5-Pad5)*%
X121370000Y-73500000D03*
%TD*%
D18*
%TO.N,/MISO*%
X136802475Y-109197525D03*
X123910000Y-102500000D03*
%TD*%
%TO.N,/NANO_VIN*%
D19*
X141099000Y-96401000D02*
X155050000Y-82450000D01*
X128850000Y-110650000D02*
X128850000Y-106150000D01*
X138599000Y-96401000D02*
X141099000Y-96401000D01*
X155050000Y-82450000D02*
X155130000Y-82450000D01*
D20*
X128850000Y-110150000D02*
X128850000Y-110650000D01*
D19*
X128850000Y-106150000D02*
X138599000Y-96401000D01*
%TO.N,/LORA_RST*%
D20*
X137420000Y-92610000D02*
X131530000Y-98500000D01*
X139890000Y-92610000D02*
X137420000Y-92610000D01*
%TO.N,/SCK*%
X128071108Y-119111000D02*
X154029000Y-119111000D01*
X121370000Y-112409892D02*
X128071108Y-119111000D01*
X121370000Y-98500000D02*
X121370000Y-112409892D01*
X154029000Y-119111000D02*
X155130000Y-118010000D01*
%TO.N,/MOSI*%
X129798000Y-115500000D02*
X132660108Y-115500000D01*
X134500000Y-116000000D02*
X139360000Y-116000000D01*
X125600000Y-111302000D02*
X129798000Y-115500000D01*
X126450000Y-98500000D02*
X125600000Y-99350000D01*
X125600000Y-99350000D02*
X125600000Y-111302000D01*
X133111108Y-115951000D02*
X134451000Y-115951000D01*
X139360000Y-116000000D02*
X139890000Y-115470000D01*
X134451000Y-115951000D02*
X134500000Y-116000000D01*
X132660108Y-115500000D02*
X133111108Y-115951000D01*
%TO.N,/MISO*%
X140346050Y-111829000D02*
X141000000Y-112482950D01*
X136802475Y-109197525D02*
X139433950Y-111829000D01*
X141000000Y-116900000D02*
X139890000Y-118010000D01*
X141000000Y-112482950D02*
X141000000Y-116900000D01*
X139433950Y-111829000D02*
X140346050Y-111829000D01*
X123910000Y-102500000D02*
X123910000Y-98500000D01*
%TD*%
M02*
