%TF.GenerationSoftware,KiCad,Pcbnew,10.0.0*%
%TF.CreationDate,2026-05-09T14:27:28-04:00*%
%TF.ProjectId,logan,6c6f6761-6e2e-46b6-9963-61645f706362,rev?*%
%TF.SameCoordinates,Original*%
%TF.FileFunction,Copper,L1,Top*%
%TF.FilePolarity,Positive*%
%FSLAX46Y46*%
G04 Gerber Fmt 4.6, Leading zero omitted, Abs format (unit mm)*
G04 Created by KiCad (PCBNEW 10.0.0) date 2026-05-09 14:27:28*
%MOMM*%
%LPD*%
G01*
G04 APERTURE LIST*
%TA.AperFunction,ComponentPad*%
%ADD10R,1.600000X1.600000*%
%TD*%
%TA.AperFunction,ComponentPad*%
%ADD11O,1.600000X1.600000*%
%TD*%
%TA.AperFunction,ComponentPad*%
%ADD12R,1.700000X1.700000*%
%TD*%
%TA.AperFunction,ComponentPad*%
%ADD13C,1.700000*%
%TD*%
%TA.AperFunction,ComponentPad*%
%ADD14O,1.700000X1.700000*%
%TD*%
%TA.AperFunction,ComponentPad*%
%ADD15R,4.600000X2.000000*%
%TD*%
%TA.AperFunction,ComponentPad*%
%ADD16O,4.200000X2.000000*%
%TD*%
%TA.AperFunction,ComponentPad*%
%ADD17O,2.000000X4.200000*%
%TD*%
%TA.AperFunction,ViaPad*%
%ADD18C,0.600000*%
%TD*%
%TA.AperFunction,Conductor*%
%ADD19C,0.200000*%
%TD*%
%TA.AperFunction,Conductor*%
%ADD20C,0.500000*%
%TD*%
G04 APERTURE END LIST*
D10*
%TO.P,A2,1,D1/TX_1*%
%TO.N,/A1_D1{slash}TX*%
X192760000Y-79300000D03*
D11*
%TO.P,A2,2,D0/RX_2*%
%TO.N,/A0_TX*%
X192760000Y-81840000D03*
%TO.P,A2,3,~{RESET}_3*%
%TO.N,/~{A1_RESET}*%
X192760000Y-84380000D03*
%TO.P,A2,4,GND_4*%
%TO.N,Earth*%
X192760000Y-86920000D03*
%TO.P,A2,5,D2_5*%
%TO.N,/A1_D2*%
X192760000Y-89460000D03*
%TO.P,A2,6,D3_6*%
%TO.N,/A1_D3*%
X192760000Y-92000000D03*
%TO.P,A2,7,D4_7*%
%TO.N,/SD_CS*%
X192760000Y-94540000D03*
%TO.P,A2,8,D5_8*%
%TO.N,/A1_D5*%
X192760000Y-97080000D03*
%TO.P,A2,9,D6_9*%
%TO.N,/A1_D6*%
X192760000Y-99620000D03*
%TO.P,A2,10,D7_10*%
%TO.N,/A1_D7*%
X192760000Y-102160000D03*
%TO.P,A2,11,D8_11*%
%TO.N,/A1_D8*%
X192760000Y-104700000D03*
%TO.P,A2,12,D9_12*%
%TO.N,/A1_D9*%
X192760000Y-107240000D03*
%TO.P,A2,13,D10_13*%
%TO.N,/A1_D10*%
X192760000Y-109780000D03*
%TO.P,A2,14,D11_14*%
%TO.N,/SD_MOSI*%
X192760000Y-112320000D03*
%TO.P,A2,15,D12_15*%
%TO.N,/SD_MISO*%
X192760000Y-114860000D03*
%TO.P,A2,16,D13_16*%
%TO.N,/SD_SCK*%
X208000000Y-114860000D03*
%TO.P,A2,17,3V3_17*%
%TO.N,A1_3V3*%
X208000000Y-112320000D03*
%TO.P,A2,18,AREF_18*%
%TO.N,/A1_AREF*%
X208000000Y-109780000D03*
%TO.P,A2,19,A0_19*%
%TO.N,/A1_A0*%
X208000000Y-107240000D03*
%TO.P,A2,20,A1_20*%
%TO.N,/A1_A1*%
X208000000Y-104700000D03*
%TO.P,A2,21,A2_21*%
%TO.N,/A1_A2*%
X208000000Y-102160000D03*
%TO.P,A2,22,A3_22*%
%TO.N,/A1_A3*%
X208000000Y-99620000D03*
%TO.P,A2,23,A4_23*%
%TO.N,/A1_A4*%
X208000000Y-97080000D03*
%TO.P,A2,24,A5_24*%
%TO.N,/A1_A5*%
X208000000Y-94540000D03*
%TO.P,A2,25,A6_25*%
%TO.N,/A1_A6*%
X208000000Y-92000000D03*
%TO.P,A2,26,A7_26*%
%TO.N,/A1_A7*%
X208000000Y-89460000D03*
%TO.P,A2,27,+5V_27*%
%TO.N,/A1_+5V*%
X208000000Y-86920000D03*
%TO.P,A2,28,~{RESET}_28*%
%TO.N,/~{A1_RESET}*%
X208000000Y-84380000D03*
%TO.P,A2,29,GND_29*%
%TO.N,Earth*%
X208000000Y-81840000D03*
%TO.P,A2,30,VIN_30*%
%TO.N,/NANO_VIN*%
X208000000Y-79300000D03*
%TD*%
D12*
%TO.P,J6,1,Pin_1_1*%
%TO.N,/D6*%
X116295000Y-104795000D03*
D13*
%TO.P,J6,2,Pin_2_2*%
%TO.N,/D7*%
X116295000Y-107335000D03*
%TO.P,J6,3,Pin_3_3*%
%TO.N,/D8*%
X116295000Y-109875000D03*
%TO.P,J6,4,Pin_4_4*%
%TO.N,/D9*%
X116295000Y-112415000D03*
%TO.P,J6,5,Pin_5_5*%
%TO.N,Earth*%
X116295000Y-114955000D03*
%TO.P,J6,6,Pin_6_6*%
X116295000Y-117495000D03*
%TO.P,J6,7,Pin_7_7*%
X116295000Y-120035000D03*
%TO.P,J6,8,Pin_8_8*%
X116295000Y-122575000D03*
%TD*%
D12*
%TO.P,J2,1,Pin_1_1*%
%TO.N,Earth*%
X164960000Y-104500000D03*
D14*
%TO.P,J2,2,Pin_2_2*%
%TO.N,/SD_MISO*%
X167500000Y-104500000D03*
%TO.P,J2,3,Pin_3_3*%
%TO.N,/SD_SCK*%
X170040000Y-104500000D03*
%TO.P,J2,4,Pin_4_4*%
%TO.N,/SD_MOSI*%
X172580000Y-104500000D03*
%TO.P,J2,5,Pin_5_5*%
%TO.N,/SD_CS*%
X175120000Y-104500000D03*
%TO.P,J2,6,Pin_6_6*%
%TO.N,A1_3V3*%
X177660000Y-104500000D03*
%TD*%
D10*
%TO.P,A1,1,D1/TX_1*%
%TO.N,/A0_TX*%
X139890000Y-82450000D03*
D11*
%TO.P,A1,2,D0/RX_2*%
%TO.N,/D0{slash}RX*%
X139890000Y-84990000D03*
%TO.P,A1,3,~{RESET}_3*%
%TO.N,/~{RESET}*%
X139890000Y-87530000D03*
%TO.P,A1,4,GND_4*%
%TO.N,Earth*%
X139890000Y-90070000D03*
%TO.P,A1,5,D2_5*%
%TO.N,/LORA_RST*%
X139890000Y-92610000D03*
%TO.P,A1,6,D3_6*%
%TO.N,/G0*%
X139890000Y-95150000D03*
%TO.P,A1,7,D4_7*%
%TO.N,/LORA_CS*%
X139890000Y-97690000D03*
%TO.P,A1,8,D5_8*%
%TO.N,/D5*%
X139890000Y-100230000D03*
%TO.P,A1,9,D6_9*%
%TO.N,/D6*%
X139890000Y-102770000D03*
%TO.P,A1,10,D7_10*%
%TO.N,/D7*%
X139890000Y-105310000D03*
%TO.P,A1,11,D8_11*%
%TO.N,/D8*%
X139890000Y-107850000D03*
%TO.P,A1,12,D9_12*%
%TO.N,/D9*%
X139890000Y-110390000D03*
%TO.P,A1,13,D10_13*%
%TO.N,/D10*%
X139890000Y-112930000D03*
%TO.P,A1,14,D11_14*%
%TO.N,/MOSI*%
X139890000Y-115470000D03*
%TO.P,A1,15,D12_15*%
%TO.N,/MISO*%
X139890000Y-118010000D03*
%TO.P,A1,16,D13_16*%
%TO.N,/SCK*%
X155130000Y-118010000D03*
%TO.P,A1,17,3V3_17*%
%TO.N,+3.3V*%
X155130000Y-115470000D03*
%TO.P,A1,18,AREF_18*%
%TO.N,/AREF*%
X155130000Y-112930000D03*
%TO.P,A1,19,A0_19*%
%TO.N,/A0*%
X155130000Y-110390000D03*
%TO.P,A1,20,A1_20*%
%TO.N,/A1*%
X155130000Y-107850000D03*
%TO.P,A1,21,A2_21*%
%TO.N,/A2*%
X155130000Y-105310000D03*
%TO.P,A1,22,A3_22*%
%TO.N,/A3*%
X155130000Y-102770000D03*
%TO.P,A1,23,A4_23*%
%TO.N,/A4*%
X155130000Y-100230000D03*
%TO.P,A1,24,A5_24*%
%TO.N,/A5*%
X155130000Y-97690000D03*
%TO.P,A1,25,A6_25*%
%TO.N,/A6*%
X155130000Y-95150000D03*
%TO.P,A1,26,A7_26*%
%TO.N,/A7*%
X155130000Y-92610000D03*
%TO.P,A1,27,+5V_27*%
%TO.N,+5V*%
X155130000Y-90070000D03*
%TO.P,A1,28,~{RESET}_28*%
%TO.N,/~{RESET}*%
X155130000Y-87530000D03*
%TO.P,A1,29,GND_29*%
%TO.N,Earth*%
X155130000Y-84990000D03*
%TO.P,A1,30,VIN_30*%
%TO.N,/NANO_VIN*%
X155130000Y-82450000D03*
%TD*%
D12*
%TO.P,J4,1,Pin_1_1*%
%TO.N,+5V*%
X111210000Y-98500000D03*
D14*
%TO.P,J4,2,Pin_2_2*%
%TO.N,Earth*%
X113750000Y-98500000D03*
%TO.P,J4,3,Pin_3_3*%
%TO.N,unconnected-(J4-Pin_3-Pad3)*%
X116290000Y-98500000D03*
%TO.P,J4,4,Pin_4_4*%
%TO.N,/G0*%
X118830000Y-98500000D03*
%TO.P,J4,5,Pin_5_5*%
%TO.N,/SCK*%
X121370000Y-98500000D03*
%TO.P,J4,6,Pin_6_6*%
%TO.N,/MISO*%
X123910000Y-98500000D03*
%TO.P,J4,7,Pin_7_7*%
%TO.N,/MOSI*%
X126450000Y-98500000D03*
%TO.P,J4,8,Pin_8_8*%
%TO.N,/LORA_CS*%
X128990000Y-98500000D03*
%TO.P,J4,9,Pin_9_9*%
%TO.N,/LORA_RST*%
X131530000Y-98500000D03*
%TD*%
D15*
%TO.P,J1,1*%
%TO.N,/NANO_VIN*%
X128850000Y-110650000D03*
D16*
%TO.P,J1,2*%
%TO.N,Earth*%
X128850000Y-116950000D03*
D17*
%TO.P,J1,3*%
X133650000Y-113550000D03*
%TD*%
D12*
%TO.P,J5,1,Pin_1_1*%
%TO.N,unconnected-(J5-Pin_1-Pad1)*%
X111210000Y-73500000D03*
D14*
%TO.P,J5,2,Pin_2_2*%
%TO.N,unconnected-(J5-Pin_2-Pad2)*%
X113750000Y-73500000D03*
%TO.P,J5,3,Pin_3_3*%
%TO.N,unconnected-(J5-Pin_3-Pad3)*%
X116290000Y-73500000D03*
%TO.P,J5,4,Pin_4_4*%
%TO.N,unconnected-(J5-Pin_4-Pad4)*%
X118830000Y-73500000D03*
%TO.P,J5,5,Pin_5_5*%
%TO.N,unconnected-(J5-Pin_5-Pad5)*%
X121370000Y-73500000D03*
%TD*%
D18*
%TO.N,/MISO*%
X136802475Y-109197525D03*
X123910000Y-102500000D03*
%TD*%
%TO.N,/~{RESET}*%
D19*
X139890000Y-87530000D02*
X155130000Y-87530000D01*
%TO.N,/NANO_VIN*%
D20*
X206749000Y-78049000D02*
X159531000Y-78049000D01*
D19*
X128850000Y-110650000D02*
X128850000Y-110150000D01*
D20*
X159531000Y-78049000D02*
X155130000Y-82450000D01*
X208000000Y-79300000D02*
X206749000Y-78049000D01*
%TO.N,/G0*%
D19*
X118830000Y-98500000D02*
X122180000Y-95150000D01*
X122180000Y-95150000D02*
X139890000Y-95150000D01*
%TO.N,/D6*%
X120663211Y-109163211D02*
X135919632Y-109163211D01*
X136553946Y-109797525D02*
X137051004Y-109797525D01*
X137402475Y-105257525D02*
X139890000Y-102770000D01*
X116295000Y-104795000D02*
X120663211Y-109163211D01*
X135919632Y-109163211D02*
X136553946Y-109797525D01*
X137051004Y-109797525D02*
X137402475Y-109446054D01*
X137402475Y-109446054D02*
X137402475Y-105257525D01*
%TO.N,/D8*%
X131615686Y-112350000D02*
X133368161Y-110597525D01*
X118770000Y-112350000D02*
X131615686Y-112350000D01*
X137382375Y-110597525D02*
X139890000Y-108089901D01*
X116295000Y-109875000D02*
X118770000Y-112350000D01*
X139890000Y-108089901D02*
X139890000Y-107850000D01*
X133368161Y-110597525D02*
X137382375Y-110597525D01*
%TO.N,/D9*%
X116295000Y-112415000D02*
X119068478Y-115188478D01*
X132350000Y-115188478D02*
X133111522Y-115950000D01*
X134330000Y-115950000D02*
X139890000Y-110390000D01*
X119068478Y-115188478D02*
X132350000Y-115188478D01*
X133111522Y-115950000D02*
X134330000Y-115950000D01*
%TO.N,/A0_TX*%
X140991000Y-83551000D02*
X139890000Y-82450000D01*
X192760000Y-81840000D02*
X191049000Y-83551000D01*
X191049000Y-83551000D02*
X140991000Y-83551000D01*
%TO.N,+5V*%
D20*
X143681000Y-101519000D02*
X155130000Y-90070000D01*
X111210000Y-98500000D02*
X114229000Y-101519000D01*
X114229000Y-101519000D02*
X143681000Y-101519000D01*
%TO.N,/LORA_CS*%
D19*
X130141000Y-99651000D02*
X137929000Y-99651000D01*
X137929000Y-99651000D02*
X139890000Y-97690000D01*
X128990000Y-98500000D02*
X130141000Y-99651000D01*
%TO.N,/D7*%
X138500000Y-108914215D02*
X138500000Y-106700000D01*
X138500000Y-106700000D02*
X139890000Y-105310000D01*
X137216690Y-110197525D02*
X138500000Y-108914215D01*
X131450000Y-111950000D02*
X133202475Y-110197525D01*
X120910000Y-111950000D02*
X131450000Y-111950000D01*
X116295000Y-107335000D02*
X120910000Y-111950000D01*
X133202475Y-110197525D02*
X137216690Y-110197525D01*
%TO.N,/SD_CS*%
X192760000Y-94540000D02*
X185080000Y-94540000D01*
X185080000Y-94540000D02*
X175120000Y-104500000D01*
%TO.N,/MISO*%
X123910000Y-102500000D02*
X125910000Y-104500000D01*
X125910000Y-104500000D02*
X132104950Y-104500000D01*
X132104950Y-104500000D02*
X136802475Y-109197525D01*
%TO.N,/~{A1_RESET}*%
X192760000Y-84380000D02*
X208000000Y-84380000D01*
%TO.N,/SD_MISO*%
X177860000Y-114860000D02*
X167500000Y-104500000D01*
X192760000Y-114860000D02*
X177860000Y-114860000D01*
%TO.N,/SD_SCK*%
X208000000Y-114860000D02*
X206899000Y-113759000D01*
X179299000Y-113759000D02*
X170040000Y-104500000D01*
X206899000Y-113759000D02*
X179299000Y-113759000D01*
%TO.N,/SD_MOSI*%
X192760000Y-112320000D02*
X180400000Y-112320000D01*
X180400000Y-112320000D02*
X172580000Y-104500000D01*
%TO.N,A1_3V3*%
X204180000Y-108500000D02*
X181660000Y-108500000D01*
X181660000Y-108500000D02*
X177660000Y-104500000D01*
X208000000Y-112320000D02*
X204180000Y-108500000D01*
%TD*%
%TA.AperFunction,Conductor*%
%TO.N,Earth*%
G36*
X117850703Y-112280385D02*
G01*
X117857181Y-112286417D01*
X118401284Y-112830520D01*
X118401286Y-112830521D01*
X118401290Y-112830524D01*
X118538209Y-112909573D01*
X118538212Y-112909575D01*
X118538216Y-112909577D01*
X118690943Y-112950501D01*
X118690945Y-112950501D01*
X118856654Y-112950501D01*
X118856670Y-112950500D01*
X131529017Y-112950500D01*
X131529033Y-112950501D01*
X131536629Y-112950501D01*
X131694740Y-112950501D01*
X131694743Y-112950501D01*
X131847471Y-112909577D01*
X131847473Y-112909575D01*
X131847475Y-112909575D01*
X131847476Y-112909574D01*
X131899431Y-112879578D01*
X131899432Y-112879577D01*
X131964000Y-112842299D01*
X132031901Y-112825826D01*
X132097927Y-112848679D01*
X132141118Y-112903600D01*
X132150000Y-112949686D01*
X132150000Y-113300000D01*
X133150000Y-113300000D01*
X133150000Y-113800000D01*
X132150000Y-113800000D01*
X132150000Y-114463978D01*
X132130315Y-114531017D01*
X132077511Y-114576772D01*
X132026000Y-114587978D01*
X119368575Y-114587978D01*
X119301536Y-114568293D01*
X119280894Y-114551659D01*
X117628757Y-112899522D01*
X117595272Y-112838199D01*
X117598507Y-112773523D01*
X117612246Y-112731243D01*
X117645500Y-112521287D01*
X117645500Y-112374098D01*
X117665185Y-112307059D01*
X117717989Y-112261304D01*
X117787147Y-112251360D01*
X117850703Y-112280385D01*
G37*
%TD.AperFunction*%
%TA.AperFunction,Conductor*%
G36*
X138513877Y-110417770D02*
G01*
X138569810Y-110459642D01*
X138593016Y-110514554D01*
X138621522Y-110694534D01*
X138626173Y-110708848D01*
X138628165Y-110778690D01*
X138592082Y-110838521D01*
X138529379Y-110869346D01*
X138459965Y-110861378D01*
X138405878Y-110817147D01*
X138397073Y-110795564D01*
X135364928Y-114065712D01*
X135304912Y-114101487D01*
X135235082Y-114099136D01*
X135177608Y-114059406D01*
X135150738Y-113994909D01*
X135150000Y-113981402D01*
X135150000Y-113800000D01*
X134150000Y-113800000D01*
X134150000Y-113300000D01*
X135150000Y-113300000D01*
X135150000Y-112331947D01*
X135113065Y-112098752D01*
X135040102Y-111874197D01*
X134932914Y-111663828D01*
X134794133Y-111472813D01*
X134731026Y-111409706D01*
X134697541Y-111348383D01*
X134702525Y-111278691D01*
X134744397Y-111222758D01*
X134809861Y-111198341D01*
X134818707Y-111198025D01*
X137295706Y-111198025D01*
X137295722Y-111198026D01*
X137303318Y-111198026D01*
X137461429Y-111198026D01*
X137461432Y-111198026D01*
X137614160Y-111157102D01*
X137671643Y-111123914D01*
X137751091Y-111078045D01*
X137862895Y-110966241D01*
X137862895Y-110966239D01*
X137873099Y-110956036D01*
X137873103Y-110956031D01*
X138382864Y-110446269D01*
X138444185Y-110412786D01*
X138513877Y-110417770D01*
G37*
%TD.AperFunction*%
%TA.AperFunction,Conductor*%
G36*
X206837437Y-85000185D02*
G01*
X206880883Y-85048205D01*
X206887715Y-85061614D01*
X207008028Y-85227213D01*
X207152786Y-85371971D01*
X207307749Y-85484556D01*
X207318390Y-85492287D01*
X207409840Y-85538883D01*
X207411080Y-85539515D01*
X207461876Y-85587490D01*
X207478671Y-85655311D01*
X207456134Y-85721446D01*
X207411080Y-85760485D01*
X207318386Y-85807715D01*
X207152786Y-85928028D01*
X207008028Y-86072786D01*
X206887715Y-86238386D01*
X206794781Y-86420776D01*
X206731522Y-86615465D01*
X206699500Y-86817648D01*
X206699500Y-87022351D01*
X206731522Y-87224534D01*
X206794781Y-87419223D01*
X206887715Y-87601613D01*
X207008028Y-87767213D01*
X207152786Y-87911971D01*
X207307749Y-88024556D01*
X207318390Y-88032287D01*
X207409840Y-88078883D01*
X207411080Y-88079515D01*
X207461876Y-88127490D01*
X207478671Y-88195311D01*
X207456134Y-88261446D01*
X207411080Y-88300485D01*
X207318386Y-88347715D01*
X207152786Y-88468028D01*
X207008028Y-88612786D01*
X206887715Y-88778386D01*
X206794781Y-88960776D01*
X206731522Y-89155465D01*
X206699500Y-89357648D01*
X206699500Y-89562351D01*
X206731522Y-89764534D01*
X206794781Y-89959223D01*
X206887715Y-90141613D01*
X207008028Y-90307213D01*
X207152786Y-90451971D01*
X207307749Y-90564556D01*
X207318390Y-90572287D01*
X207409840Y-90618883D01*
X207411080Y-90619515D01*
X207461876Y-90667490D01*
X207478671Y-90735311D01*
X207456134Y-90801446D01*
X207411080Y-90840485D01*
X207318386Y-90887715D01*
X207152786Y-91008028D01*
X207008028Y-91152786D01*
X206887715Y-91318386D01*
X206794781Y-91500776D01*
X206731522Y-91695465D01*
X206699500Y-91897648D01*
X206699500Y-92102351D01*
X206731522Y-92304534D01*
X206794781Y-92499223D01*
X206858691Y-92624653D01*
X206874496Y-92655671D01*
X206887715Y-92681613D01*
X207008028Y-92847213D01*
X207152786Y-92991971D01*
X207307749Y-93104556D01*
X207318390Y-93112287D01*
X207409840Y-93158883D01*
X207411080Y-93159515D01*
X207461876Y-93207490D01*
X207478671Y-93275311D01*
X207456134Y-93341446D01*
X207411080Y-93380485D01*
X207318386Y-93427715D01*
X207152786Y-93548028D01*
X207008028Y-93692786D01*
X206887715Y-93858386D01*
X206794781Y-94040776D01*
X206731522Y-94235465D01*
X206699500Y-94437648D01*
X206699500Y-94642351D01*
X206731522Y-94844534D01*
X206794781Y-95039223D01*
X206887715Y-95221613D01*
X207008028Y-95387213D01*
X207152786Y-95531971D01*
X207307749Y-95644556D01*
X207318390Y-95652287D01*
X207409840Y-95698883D01*
X207411080Y-95699515D01*
X207461876Y-95747490D01*
X207478671Y-95815311D01*
X207456134Y-95881446D01*
X207411080Y-95920485D01*
X207318386Y-95967715D01*
X207152786Y-96088028D01*
X207008028Y-96232786D01*
X206887715Y-96398386D01*
X206794781Y-96580776D01*
X206731522Y-96775465D01*
X206720860Y-96842786D01*
X206699500Y-96977648D01*
X206699500Y-97182352D01*
X206702252Y-97199726D01*
X206731522Y-97384534D01*
X206794781Y-97579223D01*
X206887715Y-97761613D01*
X207008028Y-97927213D01*
X207152786Y-98071971D01*
X207306649Y-98183757D01*
X207318390Y-98192287D01*
X207409840Y-98238883D01*
X207411080Y-98239515D01*
X207461876Y-98287490D01*
X207478671Y-98355311D01*
X207456134Y-98421446D01*
X207411080Y-98460485D01*
X207318386Y-98507715D01*
X207152786Y-98628028D01*
X207008028Y-98772786D01*
X206887715Y-98938386D01*
X206794781Y-99120776D01*
X206731522Y-99315465D01*
X206699500Y-99517648D01*
X206699500Y-99722351D01*
X206731522Y-99924534D01*
X206794781Y-100119223D01*
X206887715Y-100301613D01*
X207008028Y-100467213D01*
X207152786Y-100611971D01*
X207307749Y-100724556D01*
X207318390Y-100732287D01*
X207383900Y-100765666D01*
X207411080Y-100779515D01*
X207461876Y-100827490D01*
X207478671Y-100895311D01*
X207456134Y-100961446D01*
X207411080Y-101000485D01*
X207318386Y-101047715D01*
X207152786Y-101168028D01*
X207008028Y-101312786D01*
X206887715Y-101478386D01*
X206794781Y-101660776D01*
X206731522Y-101855465D01*
X206699500Y-102057648D01*
X206699500Y-102262351D01*
X206731522Y-102464534D01*
X206794781Y-102659223D01*
X206887715Y-102841613D01*
X207008028Y-103007213D01*
X207152786Y-103151971D01*
X207307749Y-103264556D01*
X207318390Y-103272287D01*
X207409840Y-103318883D01*
X207411080Y-103319515D01*
X207461876Y-103367490D01*
X207478671Y-103435311D01*
X207456134Y-103501446D01*
X207411080Y-103540485D01*
X207318386Y-103587715D01*
X207152786Y-103708028D01*
X207008028Y-103852786D01*
X206887715Y-104018386D01*
X206794781Y-104200776D01*
X206731522Y-104395465D01*
X206699500Y-104597648D01*
X206699500Y-104802351D01*
X206731522Y-105004534D01*
X206794781Y-105199223D01*
X206844227Y-105296264D01*
X206886983Y-105380178D01*
X206887715Y-105381613D01*
X207008028Y-105547213D01*
X207152786Y-105691971D01*
X207273986Y-105780026D01*
X207318390Y-105812287D01*
X207409840Y-105858883D01*
X207411080Y-105859515D01*
X207461876Y-105907490D01*
X207478671Y-105975311D01*
X207456134Y-106041446D01*
X207411080Y-106080485D01*
X207318386Y-106127715D01*
X207152786Y-106248028D01*
X207008028Y-106392786D01*
X206887715Y-106558386D01*
X206794781Y-106740776D01*
X206731522Y-106935465D01*
X206699500Y-107137648D01*
X206699500Y-107342351D01*
X206731522Y-107544534D01*
X206794781Y-107739223D01*
X206835696Y-107819522D01*
X206876447Y-107899500D01*
X206887715Y-107921613D01*
X207008028Y-108087213D01*
X207152786Y-108231971D01*
X207307749Y-108344556D01*
X207318390Y-108352287D01*
X207409840Y-108398883D01*
X207411080Y-108399515D01*
X207461876Y-108447490D01*
X207478671Y-108515311D01*
X207456134Y-108581446D01*
X207411080Y-108620485D01*
X207318386Y-108667715D01*
X207152786Y-108788028D01*
X207008028Y-108932786D01*
X206887715Y-109098386D01*
X206794781Y-109280776D01*
X206731522Y-109475465D01*
X206699500Y-109677648D01*
X206699500Y-109870903D01*
X206679815Y-109937942D01*
X206627011Y-109983697D01*
X206557853Y-109993641D01*
X206494297Y-109964616D01*
X206487819Y-109958584D01*
X204667590Y-108138355D01*
X204667588Y-108138352D01*
X204548717Y-108019481D01*
X204548709Y-108019475D01*
X204432447Y-107952352D01*
X204432447Y-107952351D01*
X204432442Y-107952350D01*
X204425233Y-107948187D01*
X204411786Y-107940423D01*
X204373603Y-107930192D01*
X204259057Y-107899499D01*
X204100943Y-107899499D01*
X204093347Y-107899499D01*
X204093331Y-107899500D01*
X194083813Y-107899500D01*
X194016774Y-107879815D01*
X193971019Y-107827011D01*
X193961075Y-107757853D01*
X193965882Y-107737182D01*
X194028476Y-107544538D01*
X194028476Y-107544537D01*
X194028477Y-107544534D01*
X194060500Y-107342352D01*
X194060500Y-107137648D01*
X194028477Y-106935466D01*
X194027972Y-106933913D01*
X193965218Y-106740776D01*
X193907339Y-106627184D01*
X193872287Y-106558390D01*
X193842572Y-106517490D01*
X193751971Y-106392786D01*
X193607213Y-106248028D01*
X193441614Y-106127715D01*
X193431846Y-106122738D01*
X193348917Y-106080483D01*
X193298123Y-106032511D01*
X193281328Y-105964690D01*
X193303865Y-105898555D01*
X193348917Y-105859516D01*
X193441610Y-105812287D01*
X193523924Y-105752483D01*
X193607213Y-105691971D01*
X193607215Y-105691968D01*
X193607219Y-105691966D01*
X193751966Y-105547219D01*
X193751968Y-105547215D01*
X193751971Y-105547213D01*
X193817243Y-105457372D01*
X193872287Y-105381610D01*
X193965220Y-105199219D01*
X194028477Y-105004534D01*
X194060500Y-104802352D01*
X194060500Y-104597648D01*
X194028477Y-104395466D01*
X194027907Y-104393713D01*
X193965218Y-104200776D01*
X193912951Y-104098198D01*
X193872287Y-104018390D01*
X193842572Y-103977490D01*
X193751971Y-103852786D01*
X193607213Y-103708028D01*
X193441614Y-103587715D01*
X193433968Y-103583819D01*
X193348917Y-103540483D01*
X193298123Y-103492511D01*
X193281328Y-103424690D01*
X193303865Y-103358555D01*
X193348917Y-103319516D01*
X193441610Y-103272287D01*
X193513615Y-103219973D01*
X193607213Y-103151971D01*
X193607215Y-103151968D01*
X193607219Y-103151966D01*
X193751966Y-103007219D01*
X193751968Y-103007215D01*
X193751971Y-103007213D01*
X193844987Y-102879185D01*
X193872287Y-102841610D01*
X193965220Y-102659219D01*
X194028477Y-102464534D01*
X194060500Y-102262352D01*
X194060500Y-102057648D01*
X194028477Y-101855466D01*
X193965220Y-101660781D01*
X193965218Y-101660778D01*
X193965218Y-101660776D01*
X193915149Y-101562511D01*
X193872287Y-101478390D01*
X193842572Y-101437490D01*
X193751971Y-101312786D01*
X193607213Y-101168028D01*
X193441614Y-101047715D01*
X193435006Y-101044348D01*
X193348917Y-101000483D01*
X193298123Y-100952511D01*
X193281328Y-100884690D01*
X193303865Y-100818555D01*
X193348917Y-100779516D01*
X193441610Y-100732287D01*
X193586729Y-100626853D01*
X193607213Y-100611971D01*
X193607215Y-100611968D01*
X193607219Y-100611966D01*
X193751966Y-100467219D01*
X193751968Y-100467215D01*
X193751971Y-100467213D01*
X193804732Y-100394590D01*
X193872287Y-100301610D01*
X193965220Y-100119219D01*
X194028477Y-99924534D01*
X194060500Y-99722352D01*
X194060500Y-99517648D01*
X194039139Y-99382781D01*
X194028477Y-99315465D01*
X193993499Y-99207816D01*
X193965220Y-99120781D01*
X193965218Y-99120778D01*
X193965218Y-99120776D01*
X193912951Y-99018198D01*
X193872287Y-98938390D01*
X193842572Y-98897490D01*
X193751971Y-98772786D01*
X193607213Y-98628028D01*
X193441614Y-98507715D01*
X193387838Y-98480315D01*
X193348917Y-98460483D01*
X193298123Y-98412511D01*
X193281328Y-98344690D01*
X193303865Y-98278555D01*
X193348917Y-98239516D01*
X193441610Y-98192287D01*
X193462770Y-98176913D01*
X193607213Y-98071971D01*
X193607215Y-98071968D01*
X193607219Y-98071966D01*
X193751966Y-97927219D01*
X193751968Y-97927215D01*
X193751971Y-97927213D01*
X193843309Y-97801495D01*
X193872287Y-97761610D01*
X193965220Y-97579219D01*
X194028477Y-97384534D01*
X194060500Y-97182352D01*
X194060500Y-96977648D01*
X194028477Y-96775466D01*
X193965220Y-96580781D01*
X193965218Y-96580778D01*
X193965218Y-96580776D01*
X193915149Y-96482511D01*
X193872287Y-96398390D01*
X193842572Y-96357490D01*
X193751971Y-96232786D01*
X193607213Y-96088028D01*
X193441614Y-95967715D01*
X193435006Y-95964348D01*
X193348917Y-95920483D01*
X193298123Y-95872511D01*
X193281328Y-95804690D01*
X193303865Y-95738555D01*
X193348917Y-95699516D01*
X193441610Y-95652287D01*
X193462770Y-95636913D01*
X193607213Y-95531971D01*
X193607215Y-95531968D01*
X193607219Y-95531966D01*
X193751966Y-95387219D01*
X193751968Y-95387215D01*
X193751971Y-95387213D01*
X193804732Y-95314590D01*
X193872287Y-95221610D01*
X193965220Y-95039219D01*
X194028477Y-94844534D01*
X194060500Y-94642352D01*
X194060500Y-94437648D01*
X194028477Y-94235466D01*
X193965220Y-94040781D01*
X193965218Y-94040778D01*
X193965218Y-94040776D01*
X193915149Y-93942511D01*
X193872287Y-93858390D01*
X193842572Y-93817490D01*
X193751971Y-93692786D01*
X193607213Y-93548028D01*
X193441614Y-93427715D01*
X193435006Y-93424348D01*
X193348917Y-93380483D01*
X193298123Y-93332511D01*
X193281328Y-93264690D01*
X193303865Y-93198555D01*
X193348917Y-93159516D01*
X193441610Y-93112287D01*
X193462770Y-93096913D01*
X193607213Y-92991971D01*
X193607215Y-92991968D01*
X193607219Y-92991966D01*
X193751966Y-92847219D01*
X193751968Y-92847215D01*
X193751971Y-92847213D01*
X193804732Y-92774590D01*
X193872287Y-92681610D01*
X193965220Y-92499219D01*
X194028477Y-92304534D01*
X194060500Y-92102352D01*
X194060500Y-91897648D01*
X194028477Y-91695466D01*
X193965220Y-91500781D01*
X193965218Y-91500778D01*
X193965218Y-91500776D01*
X193885860Y-91345029D01*
X193872287Y-91318390D01*
X193842367Y-91277208D01*
X193751971Y-91152786D01*
X193607213Y-91008028D01*
X193441614Y-90887715D01*
X193435006Y-90884348D01*
X193348917Y-90840483D01*
X193298123Y-90792511D01*
X193281328Y-90724690D01*
X193303865Y-90658555D01*
X193348917Y-90619516D01*
X193441610Y-90572287D01*
X193462770Y-90556913D01*
X193607213Y-90451971D01*
X193607215Y-90451968D01*
X193607219Y-90451966D01*
X193751966Y-90307219D01*
X193751968Y-90307215D01*
X193751971Y-90307213D01*
X193809503Y-90228025D01*
X193872287Y-90141610D01*
X193965220Y-89959219D01*
X194028477Y-89764534D01*
X194060500Y-89562352D01*
X194060500Y-89357648D01*
X194028477Y-89155466D01*
X193965220Y-88960781D01*
X193965218Y-88960778D01*
X193965218Y-88960776D01*
X193898838Y-88830500D01*
X193872287Y-88778390D01*
X193842572Y-88737490D01*
X193751971Y-88612786D01*
X193607213Y-88468028D01*
X193441611Y-88347713D01*
X193348369Y-88300203D01*
X193297574Y-88252229D01*
X193280779Y-88184407D01*
X193303317Y-88118273D01*
X193348371Y-88079234D01*
X193441347Y-88031861D01*
X193606894Y-87911582D01*
X193606895Y-87911582D01*
X193751582Y-87766895D01*
X193751582Y-87766894D01*
X193871859Y-87601349D01*
X193964755Y-87419029D01*
X194027990Y-87224413D01*
X194036609Y-87170000D01*
X193193012Y-87170000D01*
X193225925Y-87112993D01*
X193260000Y-86985826D01*
X193260000Y-86854174D01*
X193225925Y-86727007D01*
X193193012Y-86670000D01*
X194036609Y-86670000D01*
X194027990Y-86615586D01*
X193964755Y-86420970D01*
X193871859Y-86238650D01*
X193751582Y-86073105D01*
X193751582Y-86073104D01*
X193606895Y-85928417D01*
X193441349Y-85808140D01*
X193348370Y-85760765D01*
X193297574Y-85712790D01*
X193280779Y-85644969D01*
X193303316Y-85578835D01*
X193348370Y-85539795D01*
X193348920Y-85539515D01*
X193441610Y-85492287D01*
X193462770Y-85476913D01*
X193607213Y-85371971D01*
X193607215Y-85371968D01*
X193607219Y-85371966D01*
X193751966Y-85227219D01*
X193751968Y-85227215D01*
X193751971Y-85227213D01*
X193872284Y-85061614D01*
X193872285Y-85061613D01*
X193872287Y-85061610D01*
X193879117Y-85048204D01*
X193927091Y-84997409D01*
X193989602Y-84980500D01*
X206770398Y-84980500D01*
X206837437Y-85000185D01*
G37*
%TD.AperFunction*%
%TA.AperFunction,Conductor*%
G36*
X153967437Y-88150185D02*
G01*
X154010883Y-88198205D01*
X154017715Y-88211614D01*
X154138028Y-88377213D01*
X154282786Y-88521971D01*
X154407778Y-88612781D01*
X154448390Y-88642287D01*
X154539840Y-88688883D01*
X154541080Y-88689515D01*
X154591876Y-88737490D01*
X154608671Y-88805311D01*
X154586134Y-88871446D01*
X154541080Y-88910485D01*
X154448386Y-88957715D01*
X154282786Y-89078028D01*
X154138028Y-89222786D01*
X154017715Y-89388386D01*
X153924781Y-89570776D01*
X153861522Y-89765465D01*
X153829500Y-89967648D01*
X153829500Y-90172351D01*
X153838318Y-90228025D01*
X153829364Y-90297318D01*
X153803526Y-90335104D01*
X143406451Y-100732181D01*
X143345128Y-100765666D01*
X143318770Y-100768500D01*
X141253128Y-100768500D01*
X141186089Y-100748815D01*
X141140334Y-100696011D01*
X141130390Y-100626853D01*
X141135197Y-100606181D01*
X141158477Y-100534534D01*
X141190500Y-100332351D01*
X141190500Y-100127648D01*
X141158477Y-99925465D01*
X141118850Y-99803508D01*
X141095220Y-99730781D01*
X141095218Y-99730778D01*
X141095218Y-99730776D01*
X141061503Y-99664607D01*
X141002287Y-99548390D01*
X140936240Y-99457483D01*
X140881971Y-99382786D01*
X140737213Y-99238028D01*
X140571614Y-99117715D01*
X140565006Y-99114348D01*
X140478917Y-99070483D01*
X140428123Y-99022511D01*
X140411328Y-98954690D01*
X140433865Y-98888555D01*
X140478917Y-98849516D01*
X140571610Y-98802287D01*
X140722042Y-98692993D01*
X140737213Y-98681971D01*
X140737215Y-98681968D01*
X140737219Y-98681966D01*
X140881966Y-98537219D01*
X140881968Y-98537215D01*
X140881971Y-98537213D01*
X140970922Y-98414780D01*
X141002287Y-98371610D01*
X141095220Y-98189219D01*
X141158477Y-97994534D01*
X141190500Y-97792352D01*
X141190500Y-97587648D01*
X141158477Y-97385466D01*
X141095220Y-97190781D01*
X141095218Y-97190778D01*
X141095218Y-97190776D01*
X141037251Y-97077011D01*
X141002287Y-97008390D01*
X140979952Y-96977648D01*
X140881971Y-96842786D01*
X140737213Y-96698028D01*
X140571614Y-96577715D01*
X140565006Y-96574348D01*
X140478917Y-96530483D01*
X140428123Y-96482511D01*
X140411328Y-96414690D01*
X140433865Y-96348555D01*
X140478917Y-96309516D01*
X140571610Y-96262287D01*
X140612222Y-96232781D01*
X140737213Y-96141971D01*
X140737215Y-96141968D01*
X140737219Y-96141966D01*
X140881966Y-95997219D01*
X140881968Y-95997215D01*
X140881971Y-95997213D01*
X140970922Y-95874780D01*
X141002287Y-95831610D01*
X141095220Y-95649219D01*
X141158477Y-95454534D01*
X141190500Y-95252352D01*
X141190500Y-95047648D01*
X141158477Y-94845466D01*
X141095220Y-94650781D01*
X141095218Y-94650778D01*
X141095218Y-94650776D01*
X141061503Y-94584607D01*
X141002287Y-94468390D01*
X140979952Y-94437648D01*
X140881971Y-94302786D01*
X140737213Y-94158028D01*
X140571614Y-94037715D01*
X140515962Y-94009359D01*
X140478917Y-93990483D01*
X140428123Y-93942511D01*
X140411328Y-93874690D01*
X140433865Y-93808555D01*
X140478917Y-93769516D01*
X140571610Y-93722287D01*
X140612222Y-93692781D01*
X140737213Y-93601971D01*
X140737215Y-93601968D01*
X140737219Y-93601966D01*
X140881966Y-93457219D01*
X140881968Y-93457215D01*
X140881971Y-93457213D01*
X140970922Y-93334780D01*
X141002287Y-93291610D01*
X141095220Y-93109219D01*
X141158477Y-92914534D01*
X141190500Y-92712352D01*
X141190500Y-92507648D01*
X141158477Y-92305466D01*
X141095220Y-92110781D01*
X141095218Y-92110778D01*
X141095218Y-92110776D01*
X141061503Y-92044607D01*
X141002287Y-91928390D01*
X140979952Y-91897648D01*
X140881971Y-91762786D01*
X140737213Y-91618028D01*
X140571611Y-91497713D01*
X140478369Y-91450203D01*
X140427574Y-91402229D01*
X140410779Y-91334407D01*
X140433317Y-91268273D01*
X140478371Y-91229234D01*
X140571347Y-91181861D01*
X140736894Y-91061582D01*
X140736895Y-91061582D01*
X140881582Y-90916895D01*
X140881582Y-90916894D01*
X141001859Y-90751349D01*
X141094755Y-90569029D01*
X141157990Y-90374413D01*
X141166609Y-90320000D01*
X140323012Y-90320000D01*
X140355925Y-90262993D01*
X140390000Y-90135826D01*
X140390000Y-90004174D01*
X140355925Y-89877007D01*
X140323012Y-89820000D01*
X141166609Y-89820000D01*
X141157990Y-89765586D01*
X141094755Y-89570970D01*
X141001859Y-89388650D01*
X140881582Y-89223105D01*
X140881582Y-89223104D01*
X140736895Y-89078417D01*
X140571349Y-88958140D01*
X140478370Y-88910765D01*
X140427574Y-88862790D01*
X140410779Y-88794969D01*
X140433316Y-88728835D01*
X140478370Y-88689795D01*
X140478920Y-88689515D01*
X140571610Y-88642287D01*
X140612222Y-88612781D01*
X140737213Y-88521971D01*
X140737215Y-88521968D01*
X140737219Y-88521966D01*
X140881966Y-88377219D01*
X140881968Y-88377215D01*
X140881971Y-88377213D01*
X141002284Y-88211614D01*
X141002285Y-88211613D01*
X141002287Y-88211610D01*
X141009117Y-88198204D01*
X141057091Y-88147409D01*
X141119602Y-88130500D01*
X153900398Y-88130500D01*
X153967437Y-88150185D01*
G37*
%TD.AperFunction*%
%TA.AperFunction,Conductor*%
G36*
X153962902Y-84171185D02*
G01*
X154008657Y-84223989D01*
X154018601Y-84293147D01*
X154006348Y-84331795D01*
X153925244Y-84490970D01*
X153862009Y-84685586D01*
X153853391Y-84740000D01*
X154696988Y-84740000D01*
X154664075Y-84797007D01*
X154630000Y-84924174D01*
X154630000Y-85055826D01*
X154664075Y-85182993D01*
X154696988Y-85240000D01*
X153853391Y-85240000D01*
X153862009Y-85294413D01*
X153925244Y-85489029D01*
X154018140Y-85671349D01*
X154138417Y-85836894D01*
X154138417Y-85836895D01*
X154283104Y-85981582D01*
X154448652Y-86101861D01*
X154541628Y-86149234D01*
X154592425Y-86197208D01*
X154609220Y-86265029D01*
X154586683Y-86331164D01*
X154541630Y-86370203D01*
X154448388Y-86417713D01*
X154282786Y-86538028D01*
X154138028Y-86682786D01*
X154017715Y-86848385D01*
X154010883Y-86861795D01*
X153962909Y-86912591D01*
X153900398Y-86929500D01*
X141119602Y-86929500D01*
X141052563Y-86909815D01*
X141009117Y-86861795D01*
X141002284Y-86848385D01*
X140881971Y-86682786D01*
X140737213Y-86538028D01*
X140571614Y-86417715D01*
X140565006Y-86414348D01*
X140478917Y-86370483D01*
X140428123Y-86322511D01*
X140411328Y-86254690D01*
X140433865Y-86188555D01*
X140478917Y-86149516D01*
X140571610Y-86102287D01*
X140612222Y-86072781D01*
X140737213Y-85981971D01*
X140737215Y-85981968D01*
X140737219Y-85981966D01*
X140881966Y-85837219D01*
X140881968Y-85837215D01*
X140881971Y-85837213D01*
X140972368Y-85712790D01*
X141002287Y-85671610D01*
X141095220Y-85489219D01*
X141158477Y-85294534D01*
X141190500Y-85092352D01*
X141190500Y-84887648D01*
X141176144Y-84797007D01*
X141158477Y-84685465D01*
X141095218Y-84490776D01*
X141014212Y-84331795D01*
X141001316Y-84263126D01*
X141027592Y-84198386D01*
X141084698Y-84158128D01*
X141124697Y-84151500D01*
X153895863Y-84151500D01*
X153962902Y-84171185D01*
G37*
%TD.AperFunction*%
%TA.AperFunction,Conductor*%
G36*
X206453809Y-78819185D02*
G01*
X206474451Y-78835819D01*
X206673526Y-79034893D01*
X206707011Y-79096216D01*
X206708318Y-79141971D01*
X206699500Y-79197647D01*
X206699500Y-79402351D01*
X206731522Y-79604534D01*
X206794781Y-79799223D01*
X206887715Y-79981613D01*
X207008028Y-80147213D01*
X207152786Y-80291971D01*
X207307749Y-80404556D01*
X207318390Y-80412287D01*
X207390424Y-80448990D01*
X207411629Y-80459795D01*
X207462425Y-80507770D01*
X207479220Y-80575591D01*
X207456682Y-80641726D01*
X207411629Y-80680765D01*
X207318650Y-80728140D01*
X207153105Y-80848417D01*
X207153104Y-80848417D01*
X207008417Y-80993104D01*
X207008417Y-80993105D01*
X206888140Y-81158650D01*
X206795244Y-81340970D01*
X206732009Y-81535586D01*
X206723391Y-81590000D01*
X207566988Y-81590000D01*
X207534075Y-81647007D01*
X207500000Y-81774174D01*
X207500000Y-81905826D01*
X207534075Y-82032993D01*
X207566988Y-82090000D01*
X206723391Y-82090000D01*
X206732009Y-82144413D01*
X206795244Y-82339029D01*
X206888140Y-82521349D01*
X207008417Y-82686894D01*
X207008417Y-82686895D01*
X207153104Y-82831582D01*
X207318652Y-82951861D01*
X207411628Y-82999234D01*
X207462425Y-83047208D01*
X207479220Y-83115029D01*
X207456683Y-83181164D01*
X207411630Y-83220203D01*
X207318388Y-83267713D01*
X207152786Y-83388028D01*
X207008028Y-83532786D01*
X206887715Y-83698385D01*
X206880883Y-83711795D01*
X206832909Y-83762591D01*
X206770398Y-83779500D01*
X193989602Y-83779500D01*
X193922563Y-83759815D01*
X193879117Y-83711795D01*
X193872284Y-83698385D01*
X193751971Y-83532786D01*
X193607213Y-83388028D01*
X193441614Y-83267715D01*
X193435006Y-83264348D01*
X193348917Y-83220483D01*
X193298123Y-83172511D01*
X193281328Y-83104690D01*
X193303865Y-83038555D01*
X193348917Y-82999516D01*
X193441610Y-82952287D01*
X193543843Y-82878011D01*
X193607213Y-82831971D01*
X193607215Y-82831968D01*
X193607219Y-82831966D01*
X193751966Y-82687219D01*
X193751968Y-82687215D01*
X193751971Y-82687213D01*
X193804732Y-82614590D01*
X193872287Y-82521610D01*
X193965220Y-82339219D01*
X194028477Y-82144534D01*
X194060500Y-81942352D01*
X194060500Y-81737648D01*
X194039036Y-81602129D01*
X194028477Y-81535465D01*
X193986953Y-81407669D01*
X193965220Y-81340781D01*
X193965218Y-81340778D01*
X193965218Y-81340776D01*
X193916305Y-81244780D01*
X193872287Y-81158390D01*
X193846957Y-81123526D01*
X193751971Y-80992786D01*
X193607219Y-80848034D01*
X193570930Y-80821669D01*
X193528264Y-80766339D01*
X193522285Y-80696726D01*
X193554890Y-80634931D01*
X193615728Y-80600573D01*
X193630562Y-80598060D01*
X193667483Y-80594091D01*
X193802328Y-80543797D01*
X193802327Y-80543797D01*
X193802331Y-80543796D01*
X193917546Y-80457546D01*
X194003796Y-80342331D01*
X194054091Y-80207483D01*
X194060500Y-80147873D01*
X194060499Y-78923499D01*
X194080184Y-78856461D01*
X194132987Y-78810706D01*
X194184499Y-78799500D01*
X206386770Y-78799500D01*
X206453809Y-78819185D01*
G37*
%TD.AperFunction*%
%TA.AperFunction,Conductor*%
G36*
X217503736Y-70000726D02*
G01*
X217793796Y-70018271D01*
X217808659Y-70020076D01*
X218090797Y-70071780D01*
X218105334Y-70075363D01*
X218379182Y-70160698D01*
X218393163Y-70166000D01*
X218654734Y-70283724D01*
X218667987Y-70290680D01*
X218913458Y-70439071D01*
X218925776Y-70447573D01*
X219151573Y-70624474D01*
X219162781Y-70634404D01*
X219365595Y-70837218D01*
X219375525Y-70848426D01*
X219552422Y-71074217D01*
X219560928Y-71086541D01*
X219709319Y-71332012D01*
X219716277Y-71345269D01*
X219833994Y-71606823D01*
X219839304Y-71620825D01*
X219924635Y-71894664D01*
X219928219Y-71909202D01*
X219979923Y-72191340D01*
X219981728Y-72206205D01*
X219999274Y-72496263D01*
X219999500Y-72503750D01*
X219999500Y-123996249D01*
X219999274Y-124003736D01*
X219981728Y-124293794D01*
X219979923Y-124308659D01*
X219928219Y-124590797D01*
X219924635Y-124605335D01*
X219839304Y-124879174D01*
X219833994Y-124893176D01*
X219716277Y-125154730D01*
X219709319Y-125167987D01*
X219560928Y-125413458D01*
X219552422Y-125425782D01*
X219375525Y-125651573D01*
X219365595Y-125662781D01*
X219162781Y-125865595D01*
X219151573Y-125875525D01*
X218925782Y-126052422D01*
X218913458Y-126060928D01*
X218667987Y-126209319D01*
X218654730Y-126216277D01*
X218393176Y-126333994D01*
X218379174Y-126339304D01*
X218105335Y-126424635D01*
X218090797Y-126428219D01*
X217808659Y-126479923D01*
X217793794Y-126481728D01*
X217503736Y-126499274D01*
X217496249Y-126499500D01*
X100503751Y-126499500D01*
X100496264Y-126499274D01*
X100206205Y-126481728D01*
X100191340Y-126479923D01*
X99909202Y-126428219D01*
X99894664Y-126424635D01*
X99620825Y-126339304D01*
X99606827Y-126333995D01*
X99454096Y-126265256D01*
X99345269Y-126216277D01*
X99332012Y-126209319D01*
X99086541Y-126060928D01*
X99074217Y-126052422D01*
X98848426Y-125875525D01*
X98837218Y-125865595D01*
X98634404Y-125662781D01*
X98624474Y-125651573D01*
X98447573Y-125425776D01*
X98439071Y-125413458D01*
X98290680Y-125167987D01*
X98283722Y-125154730D01*
X98222370Y-125018412D01*
X98166000Y-124893163D01*
X98160698Y-124879182D01*
X98075363Y-124605334D01*
X98071780Y-124590797D01*
X98038866Y-124411193D01*
X98035663Y-124393713D01*
X215649500Y-124393713D01*
X215649500Y-124606287D01*
X215682754Y-124816243D01*
X215705528Y-124886335D01*
X215748444Y-125018414D01*
X215844951Y-125207820D01*
X215969890Y-125379786D01*
X216120213Y-125530109D01*
X216292179Y-125655048D01*
X216292181Y-125655049D01*
X216292184Y-125655051D01*
X216481588Y-125751557D01*
X216683757Y-125817246D01*
X216893713Y-125850500D01*
X216893714Y-125850500D01*
X217106286Y-125850500D01*
X217106287Y-125850500D01*
X217316243Y-125817246D01*
X217518412Y-125751557D01*
X217707816Y-125655051D01*
X217729789Y-125639086D01*
X217879786Y-125530109D01*
X217879788Y-125530106D01*
X217879792Y-125530104D01*
X218030104Y-125379792D01*
X218030106Y-125379788D01*
X218030109Y-125379786D01*
X218155048Y-125207820D01*
X218155047Y-125207820D01*
X218155051Y-125207816D01*
X218251557Y-125018412D01*
X218317246Y-124816243D01*
X218350500Y-124606287D01*
X218350500Y-124393713D01*
X218317246Y-124183757D01*
X218251557Y-123981588D01*
X218155051Y-123792184D01*
X218155049Y-123792181D01*
X218155048Y-123792179D01*
X218030109Y-123620213D01*
X217879786Y-123469890D01*
X217707820Y-123344951D01*
X217518414Y-123248444D01*
X217518413Y-123248443D01*
X217518412Y-123248443D01*
X217316243Y-123182754D01*
X217316241Y-123182753D01*
X217316240Y-123182753D01*
X217154957Y-123157208D01*
X217106287Y-123149500D01*
X216893713Y-123149500D01*
X216845042Y-123157208D01*
X216683760Y-123182753D01*
X216481585Y-123248444D01*
X216292179Y-123344951D01*
X216120213Y-123469890D01*
X215969890Y-123620213D01*
X215844951Y-123792179D01*
X215748444Y-123981585D01*
X215682753Y-124183760D01*
X215664140Y-124301281D01*
X215649500Y-124393713D01*
X98035663Y-124393713D01*
X98020076Y-124308659D01*
X98018271Y-124293794D01*
X98000726Y-124003736D01*
X98000500Y-123996249D01*
X98000500Y-120893713D01*
X100649500Y-120893713D01*
X100649500Y-121106286D01*
X100681814Y-121310312D01*
X100682754Y-121316243D01*
X100729375Y-121459728D01*
X100748444Y-121518414D01*
X100844951Y-121707820D01*
X100969890Y-121879786D01*
X101120213Y-122030109D01*
X101292179Y-122155048D01*
X101292181Y-122155049D01*
X101292184Y-122155051D01*
X101481588Y-122251557D01*
X101683757Y-122317246D01*
X101893713Y-122350500D01*
X101893714Y-122350500D01*
X102106286Y-122350500D01*
X102106287Y-122350500D01*
X102316243Y-122317246D01*
X102518412Y-122251557D01*
X102707816Y-122155051D01*
X102843073Y-122056782D01*
X102879786Y-122030109D01*
X102879788Y-122030106D01*
X102879792Y-122030104D01*
X103030104Y-121879792D01*
X103030106Y-121879788D01*
X103030109Y-121879786D01*
X103155048Y-121707820D01*
X103155047Y-121707820D01*
X103155051Y-121707816D01*
X103251557Y-121518412D01*
X103317246Y-121316243D01*
X103350500Y-121106287D01*
X103350500Y-120893713D01*
X103317246Y-120683757D01*
X103251557Y-120481588D01*
X103155051Y-120292184D01*
X103155049Y-120292181D01*
X103155048Y-120292179D01*
X103030109Y-120120213D01*
X102879786Y-119969890D01*
X102707820Y-119844951D01*
X102518414Y-119748444D01*
X102518413Y-119748443D01*
X102518412Y-119748443D01*
X102316243Y-119682754D01*
X102316241Y-119682753D01*
X102316240Y-119682753D01*
X102154957Y-119657208D01*
X102106287Y-119649500D01*
X101893713Y-119649500D01*
X101845042Y-119657208D01*
X101683760Y-119682753D01*
X101481585Y-119748444D01*
X101292179Y-119844951D01*
X101120213Y-119969890D01*
X100969890Y-120120213D01*
X100844951Y-120292179D01*
X100748444Y-120481585D01*
X100682753Y-120683760D01*
X100649500Y-120893713D01*
X98000500Y-120893713D01*
X98000500Y-97602135D01*
X109859500Y-97602135D01*
X109859500Y-99397870D01*
X109859501Y-99397876D01*
X109865908Y-99457483D01*
X109916202Y-99592328D01*
X109916206Y-99592335D01*
X110002452Y-99707544D01*
X110002455Y-99707547D01*
X110117664Y-99793793D01*
X110117671Y-99793797D01*
X110252517Y-99844091D01*
X110252516Y-99844091D01*
X110259444Y-99844835D01*
X110312127Y-99850500D01*
X111447769Y-99850499D01*
X111514808Y-99870184D01*
X111535450Y-99886818D01*
X113750586Y-102101954D01*
X113773422Y-102117211D01*
X113824270Y-102151186D01*
X113873505Y-102184084D01*
X113930080Y-102207518D01*
X114010088Y-102240659D01*
X114119147Y-102262352D01*
X114143103Y-102267117D01*
X114155081Y-102269500D01*
X114155082Y-102269500D01*
X114155083Y-102269500D01*
X114302918Y-102269500D01*
X122988572Y-102269500D01*
X123055611Y-102289185D01*
X123101366Y-102341989D01*
X123111310Y-102411147D01*
X123110189Y-102417692D01*
X123109500Y-102421155D01*
X123109500Y-102578846D01*
X123140261Y-102733489D01*
X123140264Y-102733501D01*
X123200602Y-102879172D01*
X123200609Y-102879185D01*
X123288210Y-103010288D01*
X123288213Y-103010292D01*
X123399707Y-103121786D01*
X123399711Y-103121789D01*
X123530814Y-103209390D01*
X123530827Y-103209397D01*
X123675252Y-103269219D01*
X123676503Y-103269737D01*
X123741147Y-103282595D01*
X123831849Y-103300638D01*
X123893760Y-103333023D01*
X123895339Y-103334574D01*
X125425139Y-104864374D01*
X125425149Y-104864385D01*
X125429479Y-104868715D01*
X125429480Y-104868716D01*
X125541284Y-104980520D01*
X125619608Y-105025740D01*
X125678215Y-105059577D01*
X125830943Y-105100500D01*
X131804853Y-105100500D01*
X131871892Y-105120185D01*
X131892534Y-105136819D01*
X135106744Y-108351030D01*
X135140229Y-108412353D01*
X135135245Y-108482045D01*
X135093373Y-108537978D01*
X135027909Y-108562395D01*
X135019063Y-108562711D01*
X120963308Y-108562711D01*
X120896269Y-108543026D01*
X120875627Y-108526392D01*
X117681818Y-105332583D01*
X117648333Y-105271260D01*
X117645499Y-105244902D01*
X117645499Y-103897129D01*
X117645498Y-103897123D01*
X117645497Y-103897116D01*
X117639091Y-103837517D01*
X117610912Y-103761966D01*
X117588797Y-103702671D01*
X117588793Y-103702664D01*
X117502547Y-103587455D01*
X117502544Y-103587452D01*
X117387335Y-103501206D01*
X117387328Y-103501202D01*
X117252482Y-103450908D01*
X117252483Y-103450908D01*
X117192883Y-103444501D01*
X117192881Y-103444500D01*
X117192873Y-103444500D01*
X117192864Y-103444500D01*
X115397129Y-103444500D01*
X115397123Y-103444501D01*
X115337516Y-103450908D01*
X115202671Y-103501202D01*
X115202664Y-103501206D01*
X115087455Y-103587452D01*
X115087452Y-103587455D01*
X115001206Y-103702664D01*
X115001202Y-103702671D01*
X114950908Y-103837517D01*
X114944501Y-103897116D01*
X114944501Y-103897123D01*
X114944500Y-103897135D01*
X114944500Y-105692870D01*
X114944501Y-105692876D01*
X114950908Y-105752483D01*
X115001202Y-105887328D01*
X115001206Y-105887335D01*
X115087452Y-106002544D01*
X115087455Y-106002547D01*
X115202664Y-106088793D01*
X115202671Y-106088797D01*
X115334082Y-106137810D01*
X115390016Y-106179681D01*
X115414433Y-106245145D01*
X115399582Y-106313418D01*
X115378431Y-106341673D01*
X115264889Y-106455215D01*
X115139951Y-106627179D01*
X115043444Y-106816585D01*
X114977753Y-107018760D01*
X114944500Y-107228713D01*
X114944500Y-107441286D01*
X114977753Y-107651239D01*
X114977753Y-107651241D01*
X114977754Y-107651243D01*
X115032431Y-107819522D01*
X115043444Y-107853414D01*
X115139951Y-108042820D01*
X115264890Y-108214786D01*
X115415213Y-108365109D01*
X115587182Y-108490050D01*
X115595946Y-108494516D01*
X115646742Y-108542491D01*
X115663536Y-108610312D01*
X115640998Y-108676447D01*
X115595946Y-108715484D01*
X115587182Y-108719949D01*
X115415213Y-108844890D01*
X115264890Y-108995213D01*
X115139951Y-109167179D01*
X115043444Y-109356585D01*
X114977753Y-109558760D01*
X114944500Y-109768713D01*
X114944500Y-109981286D01*
X114977753Y-110191239D01*
X114977753Y-110191241D01*
X114977754Y-110191243D01*
X115032431Y-110359522D01*
X115043444Y-110393414D01*
X115139951Y-110582820D01*
X115264890Y-110754786D01*
X115415213Y-110905109D01*
X115587182Y-111030050D01*
X115595946Y-111034516D01*
X115646742Y-111082491D01*
X115663536Y-111150312D01*
X115640998Y-111216447D01*
X115595946Y-111255484D01*
X115587182Y-111259949D01*
X115415213Y-111384890D01*
X115264890Y-111535213D01*
X115139951Y-111707179D01*
X115043444Y-111896585D01*
X114977753Y-112098760D01*
X114944500Y-112308713D01*
X114944500Y-112521286D01*
X114977753Y-112731239D01*
X114977753Y-112731241D01*
X114977754Y-112731243D01*
X115038405Y-112917908D01*
X115043444Y-112933414D01*
X115139951Y-113122820D01*
X115264890Y-113294786D01*
X115415213Y-113445109D01*
X115587179Y-113570048D01*
X115587181Y-113570049D01*
X115587184Y-113570051D01*
X115596493Y-113574794D01*
X115647290Y-113622766D01*
X115664087Y-113690587D01*
X115641552Y-113756722D01*
X115596505Y-113795760D01*
X115587446Y-113800376D01*
X115587440Y-113800380D01*
X115533282Y-113839727D01*
X115533282Y-113839728D01*
X116165591Y-114472037D01*
X116102007Y-114489075D01*
X115987993Y-114554901D01*
X115894901Y-114647993D01*
X115829075Y-114762007D01*
X115812037Y-114825591D01*
X115179728Y-114193282D01*
X115179727Y-114193282D01*
X115140380Y-114247439D01*
X115043904Y-114436782D01*
X114978242Y-114638869D01*
X114978242Y-114638872D01*
X114945000Y-114848753D01*
X114945000Y-115061246D01*
X114978242Y-115271127D01*
X114978242Y-115271130D01*
X115043904Y-115473217D01*
X115140375Y-115662550D01*
X115179728Y-115716716D01*
X115812037Y-115084408D01*
X115829075Y-115147993D01*
X115894901Y-115262007D01*
X115987993Y-115355099D01*
X116102007Y-115420925D01*
X116165591Y-115437962D01*
X115564971Y-116038581D01*
X115643711Y-116155895D01*
X115644920Y-116159729D01*
X115647844Y-116162491D01*
X115655343Y-116192778D01*
X115664727Y-116222529D01*
X115663671Y-116226408D01*
X115664638Y-116230312D01*
X115654573Y-116259844D01*
X115646383Y-116289947D01*
X115643397Y-116292640D01*
X115642100Y-116296447D01*
X115597051Y-116335483D01*
X115587440Y-116340380D01*
X115533282Y-116379727D01*
X115533282Y-116379728D01*
X116165591Y-117012037D01*
X116102007Y-117029075D01*
X115987993Y-117094901D01*
X115894901Y-117187993D01*
X115829075Y-117302007D01*
X115812037Y-117365591D01*
X115179728Y-116733282D01*
X115179727Y-116733282D01*
X115140380Y-116787439D01*
X115043904Y-116976782D01*
X114978242Y-117178869D01*
X114978242Y-117178872D01*
X114945000Y-117388753D01*
X114945000Y-117601246D01*
X114978242Y-117811127D01*
X114978242Y-117811130D01*
X115043904Y-118013217D01*
X115140375Y-118202550D01*
X115179728Y-118256716D01*
X115812037Y-117624408D01*
X115829075Y-117687993D01*
X115894901Y-117802007D01*
X115987993Y-117895099D01*
X116102007Y-117960925D01*
X116165591Y-117977962D01*
X115564971Y-118578581D01*
X115643711Y-118695895D01*
X115644920Y-118699729D01*
X115647844Y-118702491D01*
X115655343Y-118732778D01*
X115664727Y-118762529D01*
X115663671Y-118766408D01*
X115664638Y-118770312D01*
X115654573Y-118799844D01*
X115646383Y-118829947D01*
X115643397Y-118832640D01*
X115642100Y-118836447D01*
X115597051Y-118875483D01*
X115587440Y-118880380D01*
X115533282Y-118919727D01*
X115533282Y-118919728D01*
X116165591Y-119552037D01*
X116102007Y-119569075D01*
X115987993Y-119634901D01*
X115894901Y-119727993D01*
X115829075Y-119842007D01*
X115812037Y-119905591D01*
X115179728Y-119273282D01*
X115179727Y-119273282D01*
X115140380Y-119327439D01*
X115043904Y-119516782D01*
X114978242Y-119718869D01*
X114978242Y-119718872D01*
X114945000Y-119928753D01*
X114945000Y-120141246D01*
X114978242Y-120351127D01*
X114978242Y-120351130D01*
X115043904Y-120553217D01*
X115140375Y-120742550D01*
X115179728Y-120796716D01*
X115812037Y-120164408D01*
X115829075Y-120227993D01*
X115894901Y-120342007D01*
X115987993Y-120435099D01*
X116102007Y-120500925D01*
X116165591Y-120517962D01*
X115564971Y-121118581D01*
X115643711Y-121235895D01*
X115644920Y-121239729D01*
X115647844Y-121242491D01*
X115655343Y-121272778D01*
X115664727Y-121302529D01*
X115663671Y-121306408D01*
X115664638Y-121310312D01*
X115654573Y-121339844D01*
X115646383Y-121369947D01*
X115643397Y-121372640D01*
X115642100Y-121376447D01*
X115597051Y-121415483D01*
X115587440Y-121420380D01*
X115533282Y-121459727D01*
X115533282Y-121459728D01*
X116165591Y-122092037D01*
X116102007Y-122109075D01*
X115987993Y-122174901D01*
X115894901Y-122267993D01*
X115829075Y-122382007D01*
X115812037Y-122445591D01*
X115179728Y-121813282D01*
X115179727Y-121813282D01*
X115140380Y-121867439D01*
X115043904Y-122056782D01*
X114978242Y-122258869D01*
X114978242Y-122258872D01*
X114945000Y-122468753D01*
X114945000Y-122681246D01*
X114978242Y-122891127D01*
X114978242Y-122891130D01*
X115043904Y-123093217D01*
X115140375Y-123282550D01*
X115179728Y-123336716D01*
X115812037Y-122704408D01*
X115829075Y-122767993D01*
X115894901Y-122882007D01*
X115987993Y-122975099D01*
X116102007Y-123040925D01*
X116165590Y-123057962D01*
X115533282Y-123690269D01*
X115533282Y-123690270D01*
X115587449Y-123729624D01*
X115776782Y-123826095D01*
X115978870Y-123891757D01*
X116188754Y-123925000D01*
X116401246Y-123925000D01*
X116611127Y-123891757D01*
X116611130Y-123891757D01*
X116813217Y-123826095D01*
X117002554Y-123729622D01*
X117056716Y-123690270D01*
X117056717Y-123690270D01*
X116424408Y-123057962D01*
X116487993Y-123040925D01*
X116602007Y-122975099D01*
X116695099Y-122882007D01*
X116760925Y-122767993D01*
X116777962Y-122704408D01*
X117410270Y-123336717D01*
X117410270Y-123336716D01*
X117449622Y-123282554D01*
X117546095Y-123093217D01*
X117611757Y-122891130D01*
X117611757Y-122891127D01*
X117645000Y-122681246D01*
X117645000Y-122468753D01*
X117611757Y-122258872D01*
X117611757Y-122258869D01*
X117546095Y-122056782D01*
X117449624Y-121867449D01*
X117410270Y-121813282D01*
X117410269Y-121813282D01*
X116777962Y-122445590D01*
X116760925Y-122382007D01*
X116695099Y-122267993D01*
X116602007Y-122174901D01*
X116487993Y-122109075D01*
X116424409Y-122092037D01*
X117056716Y-121459728D01*
X117002550Y-121420375D01*
X116992954Y-121415486D01*
X116942157Y-121367512D01*
X116925361Y-121299692D01*
X116947897Y-121233556D01*
X116992954Y-121194514D01*
X117002554Y-121189622D01*
X117056716Y-121150270D01*
X117056717Y-121150270D01*
X116424408Y-120517962D01*
X116487993Y-120500925D01*
X116602007Y-120435099D01*
X116695099Y-120342007D01*
X116760925Y-120227993D01*
X116777962Y-120164408D01*
X117410270Y-120796717D01*
X117410270Y-120796716D01*
X117449622Y-120742554D01*
X117546095Y-120553217D01*
X117611757Y-120351130D01*
X117611757Y-120351127D01*
X117645000Y-120141246D01*
X117645000Y-119928753D01*
X117611757Y-119718872D01*
X117611757Y-119718869D01*
X117546095Y-119516782D01*
X117449624Y-119327449D01*
X117410270Y-119273282D01*
X117410269Y-119273282D01*
X116777962Y-119905590D01*
X116760925Y-119842007D01*
X116695099Y-119727993D01*
X116602007Y-119634901D01*
X116487993Y-119569075D01*
X116424409Y-119552037D01*
X117056716Y-118919728D01*
X117002550Y-118880375D01*
X116992954Y-118875486D01*
X116942157Y-118827512D01*
X116925361Y-118759692D01*
X116947897Y-118693556D01*
X116992954Y-118654514D01*
X117002554Y-118649622D01*
X117056716Y-118610270D01*
X117056717Y-118610270D01*
X116424408Y-117977962D01*
X116487993Y-117960925D01*
X116602007Y-117895099D01*
X116695099Y-117802007D01*
X116760925Y-117687993D01*
X116777962Y-117624408D01*
X117410270Y-118256717D01*
X117410270Y-118256716D01*
X117449622Y-118202554D01*
X117546095Y-118013217D01*
X117611757Y-117811130D01*
X117611757Y-117811127D01*
X117645000Y-117601246D01*
X117645000Y-117388753D01*
X117612306Y-117182335D01*
X117612306Y-117182333D01*
X117612305Y-117182330D01*
X117611756Y-117178868D01*
X117546095Y-116976782D01*
X117449624Y-116787449D01*
X117410270Y-116733282D01*
X117410269Y-116733282D01*
X116777962Y-117365590D01*
X116760925Y-117302007D01*
X116695099Y-117187993D01*
X116602007Y-117094901D01*
X116487993Y-117029075D01*
X116424409Y-117012037D01*
X117056716Y-116379728D01*
X117002550Y-116340375D01*
X116992954Y-116335486D01*
X116942157Y-116287512D01*
X116925361Y-116219692D01*
X116947897Y-116153556D01*
X116992954Y-116114514D01*
X117002554Y-116109622D01*
X117056716Y-116070270D01*
X117056717Y-116070270D01*
X116424408Y-115437962D01*
X116487993Y-115420925D01*
X116602007Y-115355099D01*
X116695099Y-115262007D01*
X116760925Y-115147993D01*
X116777962Y-115084408D01*
X117410270Y-115716717D01*
X117410270Y-115716716D01*
X117449622Y-115662554D01*
X117546095Y-115473217D01*
X117611757Y-115271130D01*
X117611757Y-115271127D01*
X117645000Y-115061246D01*
X117645000Y-114913597D01*
X117664685Y-114846558D01*
X117717489Y-114800803D01*
X117786647Y-114790859D01*
X117850203Y-114819884D01*
X117856681Y-114825916D01*
X118583617Y-115552852D01*
X118583627Y-115552863D01*
X118587957Y-115557193D01*
X118587958Y-115557194D01*
X118699762Y-115668998D01*
X118785009Y-115718215D01*
X118785010Y-115718216D01*
X118836687Y-115748052D01*
X118836688Y-115748052D01*
X118836693Y-115748055D01*
X118989420Y-115788978D01*
X118989421Y-115788978D01*
X126496067Y-115788978D01*
X126563106Y-115808663D01*
X126608861Y-115861467D01*
X126618805Y-115930625D01*
X126596385Y-115985864D01*
X126467085Y-116163828D01*
X126359897Y-116374197D01*
X126286934Y-116598752D01*
X126270898Y-116700000D01*
X127316988Y-116700000D01*
X127284075Y-116757007D01*
X127250000Y-116884174D01*
X127250000Y-117015826D01*
X127284075Y-117142993D01*
X127316988Y-117200000D01*
X126270898Y-117200000D01*
X126286934Y-117301247D01*
X126359897Y-117525802D01*
X126467085Y-117736171D01*
X126605866Y-117927186D01*
X126772813Y-118094133D01*
X126963828Y-118232914D01*
X127174197Y-118340102D01*
X127398752Y-118413065D01*
X127398751Y-118413065D01*
X127631948Y-118450000D01*
X128600000Y-118450000D01*
X128600000Y-117450000D01*
X129100000Y-117450000D01*
X129100000Y-118450000D01*
X130068052Y-118450000D01*
X130301247Y-118413065D01*
X130525802Y-118340102D01*
X130736171Y-118232914D01*
X130927186Y-118094133D01*
X131094133Y-117927186D01*
X131232914Y-117736171D01*
X131340102Y-117525802D01*
X131413065Y-117301247D01*
X131429102Y-117200000D01*
X130383012Y-117200000D01*
X130415925Y-117142993D01*
X130450000Y-117015826D01*
X130450000Y-116884174D01*
X130415925Y-116757007D01*
X130383012Y-116700000D01*
X131429102Y-116700000D01*
X131413065Y-116598752D01*
X131340102Y-116374197D01*
X131232914Y-116163828D01*
X131103615Y-115985864D01*
X131080135Y-115920057D01*
X131095960Y-115852003D01*
X131146066Y-115803308D01*
X131203933Y-115788978D01*
X132049903Y-115788978D01*
X132116942Y-115808663D01*
X132137583Y-115825296D01*
X132742806Y-116430520D01*
X132742808Y-116430521D01*
X132742812Y-116430524D01*
X132879731Y-116509573D01*
X132879734Y-116509575D01*
X132879738Y-116509577D01*
X133032465Y-116550501D01*
X133032467Y-116550501D01*
X133198176Y-116550501D01*
X133198192Y-116550500D01*
X134243331Y-116550500D01*
X134243347Y-116550501D01*
X134250943Y-116550501D01*
X134409054Y-116550501D01*
X134409057Y-116550501D01*
X134561785Y-116509577D01*
X134644249Y-116461966D01*
X134698716Y-116430520D01*
X134810520Y-116318716D01*
X134810520Y-116318714D01*
X134820724Y-116308511D01*
X134820728Y-116308506D01*
X138377819Y-112751415D01*
X138439142Y-112717930D01*
X138508834Y-112722914D01*
X138564767Y-112764786D01*
X138589184Y-112830250D01*
X138589500Y-112839096D01*
X138589500Y-113032351D01*
X138621522Y-113234534D01*
X138684781Y-113429223D01*
X138777715Y-113611613D01*
X138898028Y-113777213D01*
X139042786Y-113921971D01*
X139143179Y-113994909D01*
X139208390Y-114042287D01*
X139299840Y-114088883D01*
X139301080Y-114089515D01*
X139351876Y-114137490D01*
X139368671Y-114205311D01*
X139346134Y-114271446D01*
X139301080Y-114310485D01*
X139208386Y-114357715D01*
X139042786Y-114478028D01*
X138898028Y-114622786D01*
X138777715Y-114788386D01*
X138684781Y-114970776D01*
X138621522Y-115165465D01*
X138589500Y-115367648D01*
X138589500Y-115572351D01*
X138621522Y-115774534D01*
X138684781Y-115969223D01*
X138777715Y-116151613D01*
X138898028Y-116317213D01*
X139042786Y-116461971D01*
X139164640Y-116550501D01*
X139208390Y-116582287D01*
X139299840Y-116628883D01*
X139301080Y-116629515D01*
X139351876Y-116677490D01*
X139368671Y-116745311D01*
X139346134Y-116811446D01*
X139301080Y-116850485D01*
X139208386Y-116897715D01*
X139042786Y-117018028D01*
X138898028Y-117162786D01*
X138777715Y-117328386D01*
X138684781Y-117510776D01*
X138621522Y-117705465D01*
X138589500Y-117907648D01*
X138589500Y-118112351D01*
X138621522Y-118314534D01*
X138684781Y-118509223D01*
X138777715Y-118691613D01*
X138898028Y-118857213D01*
X139042786Y-119001971D01*
X139197749Y-119114556D01*
X139208390Y-119122287D01*
X139324607Y-119181503D01*
X139390776Y-119215218D01*
X139390778Y-119215218D01*
X139390781Y-119215220D01*
X139495137Y-119249127D01*
X139585465Y-119278477D01*
X139686557Y-119294488D01*
X139787648Y-119310500D01*
X139787649Y-119310500D01*
X139992351Y-119310500D01*
X139992352Y-119310500D01*
X140194534Y-119278477D01*
X140389219Y-119215220D01*
X140571610Y-119122287D01*
X140664590Y-119054732D01*
X140737213Y-119001971D01*
X140737215Y-119001968D01*
X140737219Y-119001966D01*
X140881966Y-118857219D01*
X140881968Y-118857215D01*
X140881971Y-118857213D01*
X140945107Y-118770312D01*
X141002287Y-118691610D01*
X141095220Y-118509219D01*
X141158477Y-118314534D01*
X141190500Y-118112352D01*
X141190500Y-117907648D01*
X141158477Y-117705466D01*
X141095220Y-117510781D01*
X141095218Y-117510778D01*
X141095218Y-117510776D01*
X141046888Y-117415925D01*
X141002287Y-117328390D01*
X140950425Y-117257007D01*
X140881971Y-117162786D01*
X140737213Y-117018028D01*
X140571614Y-116897715D01*
X140545038Y-116884174D01*
X140478917Y-116850483D01*
X140428123Y-116802511D01*
X140411328Y-116734690D01*
X140433865Y-116668555D01*
X140478917Y-116629516D01*
X140571610Y-116582287D01*
X140615360Y-116550501D01*
X140737213Y-116461971D01*
X140737219Y-116461966D01*
X140768667Y-116430518D01*
X140881966Y-116317219D01*
X140881968Y-116317215D01*
X140881971Y-116317213D01*
X140945107Y-116230312D01*
X141002287Y-116151610D01*
X141095220Y-115969219D01*
X141158477Y-115774534D01*
X141190500Y-115572352D01*
X141190500Y-115367648D01*
X141158477Y-115165466D01*
X141095220Y-114970781D01*
X141095218Y-114970778D01*
X141095218Y-114970776D01*
X141053639Y-114889174D01*
X141002287Y-114788390D01*
X140949567Y-114715826D01*
X140881971Y-114622786D01*
X140737213Y-114478028D01*
X140571614Y-114357715D01*
X140565006Y-114354348D01*
X140478917Y-114310483D01*
X140428123Y-114262511D01*
X140411328Y-114194690D01*
X140433865Y-114128555D01*
X140478917Y-114089516D01*
X140571610Y-114042287D01*
X140655412Y-113981402D01*
X140737213Y-113921971D01*
X140737215Y-113921968D01*
X140737219Y-113921966D01*
X140881966Y-113777219D01*
X140881968Y-113777215D01*
X140881971Y-113777213D01*
X140970922Y-113654780D01*
X141002287Y-113611610D01*
X141095220Y-113429219D01*
X141158477Y-113234534D01*
X141190500Y-113032352D01*
X141190500Y-112827648D01*
X141181927Y-112773521D01*
X141158477Y-112625465D01*
X141095218Y-112430776D01*
X141032180Y-112307059D01*
X141002287Y-112248390D01*
X140979952Y-112217648D01*
X140881971Y-112082786D01*
X140737213Y-111938028D01*
X140571614Y-111817715D01*
X140565006Y-111814348D01*
X140478917Y-111770483D01*
X140428123Y-111722511D01*
X140411328Y-111654690D01*
X140433865Y-111588555D01*
X140478917Y-111549516D01*
X140571610Y-111502287D01*
X140612222Y-111472781D01*
X140737213Y-111381971D01*
X140737215Y-111381968D01*
X140737219Y-111381966D01*
X140881966Y-111237219D01*
X140881968Y-111237215D01*
X140881971Y-111237213D01*
X140970922Y-111114780D01*
X141002287Y-111071610D01*
X141095220Y-110889219D01*
X141158477Y-110694534D01*
X141190500Y-110492352D01*
X141190500Y-110287648D01*
X141158477Y-110085466D01*
X141095220Y-109890781D01*
X141095218Y-109890778D01*
X141095218Y-109890776D01*
X141059498Y-109820672D01*
X141002287Y-109708390D01*
X140955310Y-109643731D01*
X140881971Y-109542786D01*
X140737213Y-109398028D01*
X140571614Y-109277715D01*
X140565006Y-109274348D01*
X140478917Y-109230483D01*
X140428123Y-109182511D01*
X140411328Y-109114690D01*
X140433865Y-109048555D01*
X140478917Y-109009516D01*
X140571610Y-108962287D01*
X140612222Y-108932781D01*
X140737213Y-108841971D01*
X140737215Y-108841968D01*
X140737219Y-108841966D01*
X140881966Y-108697219D01*
X140881968Y-108697215D01*
X140881971Y-108697213D01*
X140970922Y-108574780D01*
X141002287Y-108531610D01*
X141095220Y-108349219D01*
X141158477Y-108154534D01*
X141190500Y-107952352D01*
X141190500Y-107747648D01*
X141158477Y-107545466D01*
X141158175Y-107544538D01*
X141095218Y-107350776D01*
X141033023Y-107228713D01*
X141002287Y-107168390D01*
X140979952Y-107137648D01*
X140881971Y-107002786D01*
X140737213Y-106858028D01*
X140571614Y-106737715D01*
X140565006Y-106734348D01*
X140478917Y-106690483D01*
X140428123Y-106642511D01*
X140411328Y-106574690D01*
X140433865Y-106508555D01*
X140478917Y-106469516D01*
X140571610Y-106422287D01*
X140682567Y-106341673D01*
X140737213Y-106301971D01*
X140737215Y-106301968D01*
X140737219Y-106301966D01*
X140881966Y-106157219D01*
X140881968Y-106157215D01*
X140881971Y-106157213D01*
X140937716Y-106080485D01*
X141002287Y-105991610D01*
X141095220Y-105809219D01*
X141158477Y-105614534D01*
X141190500Y-105412352D01*
X141190500Y-105207648D01*
X141181094Y-105148259D01*
X141158477Y-105005465D01*
X141112633Y-104864374D01*
X141095220Y-104810781D01*
X141095218Y-104810778D01*
X141095218Y-104810776D01*
X141061503Y-104744607D01*
X141002287Y-104628390D01*
X140956832Y-104565826D01*
X140881971Y-104462786D01*
X140737213Y-104318028D01*
X140571614Y-104197715D01*
X140544220Y-104183757D01*
X140478917Y-104150483D01*
X140428123Y-104102511D01*
X140411328Y-104034690D01*
X140433865Y-103968555D01*
X140478917Y-103929516D01*
X140571610Y-103882287D01*
X140633231Y-103837517D01*
X140737213Y-103761971D01*
X140737215Y-103761968D01*
X140737219Y-103761966D01*
X140881966Y-103617219D01*
X140881968Y-103617215D01*
X140881971Y-103617213D01*
X140938453Y-103539470D01*
X141002287Y-103451610D01*
X141095220Y-103269219D01*
X141158477Y-103074534D01*
X141190500Y-102872352D01*
X141190500Y-102667648D01*
X141158477Y-102465466D01*
X141158475Y-102465462D01*
X141158475Y-102465457D01*
X141147545Y-102431817D01*
X141145550Y-102361976D01*
X141181631Y-102302144D01*
X141244332Y-102271316D01*
X141265476Y-102269500D01*
X143754920Y-102269500D01*
X143852462Y-102250096D01*
X143899913Y-102240658D01*
X144036495Y-102184084D01*
X144085729Y-102151186D01*
X144159416Y-102101952D01*
X153619068Y-92642298D01*
X153680389Y-92608815D01*
X153750081Y-92613799D01*
X153806014Y-92655671D01*
X153829220Y-92710583D01*
X153861522Y-92914534D01*
X153924781Y-93109223D01*
X153988691Y-93234653D01*
X154009408Y-93275311D01*
X154017715Y-93291613D01*
X154138028Y-93457213D01*
X154282786Y-93601971D01*
X154407778Y-93692781D01*
X154448390Y-93722287D01*
X154539840Y-93768883D01*
X154541080Y-93769515D01*
X154591876Y-93817490D01*
X154608671Y-93885311D01*
X154586134Y-93951446D01*
X154541080Y-93990485D01*
X154448386Y-94037715D01*
X154282786Y-94158028D01*
X154138028Y-94302786D01*
X154017715Y-94468386D01*
X153924781Y-94650776D01*
X153861522Y-94845465D01*
X153829500Y-95047648D01*
X153829500Y-95252351D01*
X153861522Y-95454534D01*
X153924781Y-95649223D01*
X153986415Y-95770185D01*
X154009408Y-95815311D01*
X154017715Y-95831613D01*
X154138028Y-95997213D01*
X154282786Y-96141971D01*
X154407778Y-96232781D01*
X154448390Y-96262287D01*
X154539840Y-96308883D01*
X154541080Y-96309515D01*
X154591876Y-96357490D01*
X154608671Y-96425311D01*
X154586134Y-96491446D01*
X154541080Y-96530485D01*
X154448386Y-96577715D01*
X154282786Y-96698028D01*
X154138028Y-96842786D01*
X154017715Y-97008386D01*
X153924781Y-97190776D01*
X153861522Y-97385465D01*
X153829500Y-97587648D01*
X153829500Y-97792351D01*
X153861522Y-97994534D01*
X153924781Y-98189223D01*
X153984796Y-98307007D01*
X154009408Y-98355311D01*
X154017715Y-98371613D01*
X154138028Y-98537213D01*
X154282786Y-98681971D01*
X154407778Y-98772781D01*
X154448390Y-98802287D01*
X154539840Y-98848883D01*
X154541080Y-98849515D01*
X154591876Y-98897490D01*
X154608671Y-98965311D01*
X154586134Y-99031446D01*
X154541080Y-99070485D01*
X154448386Y-99117715D01*
X154282786Y-99238028D01*
X154138028Y-99382786D01*
X154017715Y-99548386D01*
X153924781Y-99730776D01*
X153861522Y-99925465D01*
X153829500Y-100127648D01*
X153829500Y-100332351D01*
X153861522Y-100534534D01*
X153924781Y-100729223D01*
X153988691Y-100854653D01*
X154009408Y-100895311D01*
X154017715Y-100911613D01*
X154138028Y-101077213D01*
X154282786Y-101221971D01*
X154407778Y-101312781D01*
X154448390Y-101342287D01*
X154539840Y-101388883D01*
X154541080Y-101389515D01*
X154591876Y-101437490D01*
X154608671Y-101505311D01*
X154586134Y-101571446D01*
X154541080Y-101610485D01*
X154448386Y-101657715D01*
X154282786Y-101778028D01*
X154138028Y-101922786D01*
X154017715Y-102088386D01*
X153924781Y-102270776D01*
X153861522Y-102465465D01*
X153829500Y-102667648D01*
X153829500Y-102872351D01*
X153861522Y-103074534D01*
X153924781Y-103269223D01*
X153988691Y-103394653D01*
X154017355Y-103450908D01*
X154017715Y-103451613D01*
X154138028Y-103617213D01*
X154282786Y-103761971D01*
X154429463Y-103868536D01*
X154448390Y-103882287D01*
X154539840Y-103928883D01*
X154541080Y-103929515D01*
X154591876Y-103977490D01*
X154608671Y-104045311D01*
X154586134Y-104111446D01*
X154541080Y-104150485D01*
X154448386Y-104197715D01*
X154282786Y-104318028D01*
X154138028Y-104462786D01*
X154017715Y-104628386D01*
X153924781Y-104810776D01*
X153861522Y-105005465D01*
X153838906Y-105148259D01*
X153829500Y-105207648D01*
X153829500Y-105412352D01*
X153833878Y-105439995D01*
X153861522Y-105614534D01*
X153924781Y-105809223D01*
X153986915Y-105931166D01*
X154009408Y-105975311D01*
X154017715Y-105991613D01*
X154138028Y-106157213D01*
X154282786Y-106301971D01*
X154407778Y-106392781D01*
X154448390Y-106422287D01*
X154513015Y-106455215D01*
X154541080Y-106469515D01*
X154591876Y-106517490D01*
X154608671Y-106585311D01*
X154586134Y-106651446D01*
X154541080Y-106690485D01*
X154448386Y-106737715D01*
X154282786Y-106858028D01*
X154138028Y-107002786D01*
X154017715Y-107168386D01*
X153924781Y-107350776D01*
X153861522Y-107545465D01*
X153829500Y-107747648D01*
X153829500Y-107952350D01*
X153861522Y-108154534D01*
X153924781Y-108349223D01*
X153988691Y-108474653D01*
X154015054Y-108526392D01*
X154017715Y-108531613D01*
X154138028Y-108697213D01*
X154282786Y-108841971D01*
X154407778Y-108932781D01*
X154448390Y-108962287D01*
X154513011Y-108995213D01*
X154541080Y-109009515D01*
X154591876Y-109057490D01*
X154608671Y-109125311D01*
X154586134Y-109191446D01*
X154541080Y-109230485D01*
X154448386Y-109277715D01*
X154282786Y-109398028D01*
X154138028Y-109542786D01*
X154017715Y-109708386D01*
X153924781Y-109890776D01*
X153861522Y-110085465D01*
X153829500Y-110287648D01*
X153829500Y-110492351D01*
X153861522Y-110694534D01*
X153924781Y-110889223D01*
X153977048Y-110991801D01*
X154009408Y-111055311D01*
X154017715Y-111071613D01*
X154138028Y-111237213D01*
X154282786Y-111381971D01*
X154407778Y-111472781D01*
X154448390Y-111502287D01*
X154539840Y-111548883D01*
X154541080Y-111549515D01*
X154591876Y-111597490D01*
X154608671Y-111665311D01*
X154586134Y-111731446D01*
X154541080Y-111770485D01*
X154448386Y-111817715D01*
X154282786Y-111938028D01*
X154138028Y-112082786D01*
X154017715Y-112248386D01*
X153924781Y-112430776D01*
X153861522Y-112625465D01*
X153829500Y-112827648D01*
X153829500Y-113032351D01*
X153861522Y-113234534D01*
X153924781Y-113429223D01*
X154017715Y-113611613D01*
X154138028Y-113777213D01*
X154282786Y-113921971D01*
X154383179Y-113994909D01*
X154448390Y-114042287D01*
X154539840Y-114088883D01*
X154541080Y-114089515D01*
X154591876Y-114137490D01*
X154608671Y-114205311D01*
X154586134Y-114271446D01*
X154541080Y-114310485D01*
X154448386Y-114357715D01*
X154282786Y-114478028D01*
X154138028Y-114622786D01*
X154017715Y-114788386D01*
X153924781Y-114970776D01*
X153861522Y-115165465D01*
X153829500Y-115367648D01*
X153829500Y-115572351D01*
X153861522Y-115774534D01*
X153924781Y-115969223D01*
X154017715Y-116151613D01*
X154138028Y-116317213D01*
X154282786Y-116461971D01*
X154404640Y-116550501D01*
X154448390Y-116582287D01*
X154539840Y-116628883D01*
X154541080Y-116629515D01*
X154591876Y-116677490D01*
X154608671Y-116745311D01*
X154586134Y-116811446D01*
X154541080Y-116850485D01*
X154448386Y-116897715D01*
X154282786Y-117018028D01*
X154138028Y-117162786D01*
X154017715Y-117328386D01*
X153924781Y-117510776D01*
X153861522Y-117705465D01*
X153829500Y-117907648D01*
X153829500Y-118112351D01*
X153861522Y-118314534D01*
X153924781Y-118509223D01*
X154017715Y-118691613D01*
X154138028Y-118857213D01*
X154282786Y-119001971D01*
X154437749Y-119114556D01*
X154448390Y-119122287D01*
X154564607Y-119181503D01*
X154630776Y-119215218D01*
X154630778Y-119215218D01*
X154630781Y-119215220D01*
X154735137Y-119249127D01*
X154825465Y-119278477D01*
X154926557Y-119294488D01*
X155027648Y-119310500D01*
X155027649Y-119310500D01*
X155232351Y-119310500D01*
X155232352Y-119310500D01*
X155434534Y-119278477D01*
X155629219Y-119215220D01*
X155811610Y-119122287D01*
X155904590Y-119054732D01*
X155977213Y-119001971D01*
X155977215Y-119001968D01*
X155977219Y-119001966D01*
X156121966Y-118857219D01*
X156121968Y-118857215D01*
X156121971Y-118857213D01*
X156185107Y-118770312D01*
X156242287Y-118691610D01*
X156335220Y-118509219D01*
X156398477Y-118314534D01*
X156430500Y-118112352D01*
X156430500Y-117907648D01*
X156398477Y-117705466D01*
X156335220Y-117510781D01*
X156335218Y-117510778D01*
X156335218Y-117510776D01*
X156286888Y-117415925D01*
X156242287Y-117328390D01*
X156190425Y-117257007D01*
X156121971Y-117162786D01*
X155977213Y-117018028D01*
X155811614Y-116897715D01*
X155785038Y-116884174D01*
X155718917Y-116850483D01*
X155668123Y-116802511D01*
X155651328Y-116734690D01*
X155673865Y-116668555D01*
X155718917Y-116629516D01*
X155811610Y-116582287D01*
X155855360Y-116550501D01*
X155977213Y-116461971D01*
X155977219Y-116461966D01*
X156008667Y-116430518D01*
X156121966Y-116317219D01*
X156121968Y-116317215D01*
X156121971Y-116317213D01*
X156185107Y-116230312D01*
X156242287Y-116151610D01*
X156335220Y-115969219D01*
X156398477Y-115774534D01*
X156430500Y-115572352D01*
X156430500Y-115367648D01*
X156398477Y-115165466D01*
X156335220Y-114970781D01*
X156335218Y-114970778D01*
X156335218Y-114970776D01*
X156293639Y-114889174D01*
X156242287Y-114788390D01*
X156189567Y-114715826D01*
X156121971Y-114622786D01*
X155977213Y-114478028D01*
X155811614Y-114357715D01*
X155805006Y-114354348D01*
X155718917Y-114310483D01*
X155668123Y-114262511D01*
X155651328Y-114194690D01*
X155673865Y-114128555D01*
X155718917Y-114089516D01*
X155811610Y-114042287D01*
X155895412Y-113981402D01*
X155977213Y-113921971D01*
X155977215Y-113921968D01*
X155977219Y-113921966D01*
X156121966Y-113777219D01*
X156121968Y-113777215D01*
X156121971Y-113777213D01*
X156210922Y-113654780D01*
X156242287Y-113611610D01*
X156335220Y-113429219D01*
X156398477Y-113234534D01*
X156430500Y-113032352D01*
X156430500Y-112827648D01*
X156421927Y-112773521D01*
X156398477Y-112625465D01*
X156335218Y-112430776D01*
X156272180Y-112307059D01*
X156242287Y-112248390D01*
X156219952Y-112217648D01*
X156121971Y-112082786D01*
X155977213Y-111938028D01*
X155811614Y-111817715D01*
X155805006Y-111814348D01*
X155718917Y-111770483D01*
X155668123Y-111722511D01*
X155651328Y-111654690D01*
X155673865Y-111588555D01*
X155718917Y-111549516D01*
X155811610Y-111502287D01*
X155852222Y-111472781D01*
X155977213Y-111381971D01*
X155977215Y-111381968D01*
X155977219Y-111381966D01*
X156121966Y-111237219D01*
X156121968Y-111237215D01*
X156121971Y-111237213D01*
X156210922Y-111114780D01*
X156242287Y-111071610D01*
X156335220Y-110889219D01*
X156398477Y-110694534D01*
X156430500Y-110492352D01*
X156430500Y-110287648D01*
X156398477Y-110085466D01*
X156335220Y-109890781D01*
X156335218Y-109890778D01*
X156335218Y-109890776D01*
X156299498Y-109820672D01*
X156242287Y-109708390D01*
X156195310Y-109643731D01*
X156121971Y-109542786D01*
X155977213Y-109398028D01*
X155811614Y-109277715D01*
X155805006Y-109274348D01*
X155718917Y-109230483D01*
X155668123Y-109182511D01*
X155651328Y-109114690D01*
X155673865Y-109048555D01*
X155718917Y-109009516D01*
X155811610Y-108962287D01*
X155852222Y-108932781D01*
X155977213Y-108841971D01*
X155977215Y-108841968D01*
X155977219Y-108841966D01*
X156121966Y-108697219D01*
X156121968Y-108697215D01*
X156121971Y-108697213D01*
X156210922Y-108574780D01*
X156242287Y-108531610D01*
X156335220Y-108349219D01*
X156398477Y-108154534D01*
X156430500Y-107952352D01*
X156430500Y-107747648D01*
X156398477Y-107545466D01*
X156398175Y-107544538D01*
X156335218Y-107350776D01*
X156273023Y-107228713D01*
X156242287Y-107168390D01*
X156219952Y-107137648D01*
X156121971Y-107002786D01*
X155977213Y-106858028D01*
X155811614Y-106737715D01*
X155805006Y-106734348D01*
X155718917Y-106690483D01*
X155668123Y-106642511D01*
X155651328Y-106574690D01*
X155673865Y-106508555D01*
X155718917Y-106469516D01*
X155811610Y-106422287D01*
X155922567Y-106341673D01*
X155977213Y-106301971D01*
X155977215Y-106301968D01*
X155977219Y-106301966D01*
X156121966Y-106157219D01*
X156121968Y-106157215D01*
X156121971Y-106157213D01*
X156177716Y-106080485D01*
X156242287Y-105991610D01*
X156335220Y-105809219D01*
X156398477Y-105614534D01*
X156430500Y-105412352D01*
X156430500Y-105207648D01*
X156421094Y-105148259D01*
X156398477Y-105005465D01*
X156352633Y-104864374D01*
X156335220Y-104810781D01*
X156335218Y-104810778D01*
X156335218Y-104810776D01*
X156306764Y-104754933D01*
X156304250Y-104750000D01*
X156242287Y-104628390D01*
X156196832Y-104565826D01*
X156121971Y-104462786D01*
X155977213Y-104318028D01*
X155811614Y-104197715D01*
X155784220Y-104183757D01*
X155718917Y-104150483D01*
X155668123Y-104102511D01*
X155651328Y-104034690D01*
X155673865Y-103968555D01*
X155718917Y-103929516D01*
X155811610Y-103882287D01*
X155873231Y-103837517D01*
X155977213Y-103761971D01*
X155977215Y-103761968D01*
X155977219Y-103761966D01*
X156121966Y-103617219D01*
X156242287Y-103451610D01*
X156335220Y-103269219D01*
X156398477Y-103074534D01*
X156430500Y-102872352D01*
X156430500Y-102667648D01*
X156398477Y-102465466D01*
X156398476Y-102465464D01*
X156354288Y-102329466D01*
X156335220Y-102270781D01*
X156335218Y-102270778D01*
X156335218Y-102270776D01*
X156301503Y-102204607D01*
X156242287Y-102088390D01*
X156219952Y-102057648D01*
X156121971Y-101922786D01*
X155977213Y-101778028D01*
X155811614Y-101657715D01*
X155805006Y-101654348D01*
X155718917Y-101610483D01*
X155668123Y-101562511D01*
X155651328Y-101494690D01*
X155673865Y-101428555D01*
X155718917Y-101389516D01*
X155811610Y-101342287D01*
X155852222Y-101312781D01*
X155977213Y-101221971D01*
X155977215Y-101221968D01*
X155977219Y-101221966D01*
X156121966Y-101077219D01*
X156121968Y-101077215D01*
X156121971Y-101077213D01*
X156210922Y-100954780D01*
X156242287Y-100911610D01*
X156335220Y-100729219D01*
X156398477Y-100534534D01*
X156430500Y-100332352D01*
X156430500Y-100127648D01*
X156426824Y-100104436D01*
X156398477Y-99925465D01*
X156358850Y-99803508D01*
X156335220Y-99730781D01*
X156335218Y-99730778D01*
X156335218Y-99730776D01*
X156301503Y-99664607D01*
X156242287Y-99548390D01*
X156176240Y-99457483D01*
X156121971Y-99382786D01*
X155977213Y-99238028D01*
X155811614Y-99117715D01*
X155805006Y-99114348D01*
X155718917Y-99070483D01*
X155668123Y-99022511D01*
X155651328Y-98954690D01*
X155673865Y-98888555D01*
X155718917Y-98849516D01*
X155811610Y-98802287D01*
X155962042Y-98692993D01*
X155977213Y-98681971D01*
X155977215Y-98681968D01*
X155977219Y-98681966D01*
X156121966Y-98537219D01*
X156121968Y-98537215D01*
X156121971Y-98537213D01*
X156210922Y-98414780D01*
X156242287Y-98371610D01*
X156335220Y-98189219D01*
X156398477Y-97994534D01*
X156430500Y-97792352D01*
X156430500Y-97587648D01*
X156398477Y-97385466D01*
X156335220Y-97190781D01*
X156335218Y-97190778D01*
X156335218Y-97190776D01*
X156277251Y-97077011D01*
X156242287Y-97008390D01*
X156219952Y-96977648D01*
X156121971Y-96842786D01*
X155977213Y-96698028D01*
X155811614Y-96577715D01*
X155805006Y-96574348D01*
X155718917Y-96530483D01*
X155668123Y-96482511D01*
X155651328Y-96414690D01*
X155673865Y-96348555D01*
X155718917Y-96309516D01*
X155811610Y-96262287D01*
X155852222Y-96232781D01*
X155977213Y-96141971D01*
X155977215Y-96141968D01*
X155977219Y-96141966D01*
X156121966Y-95997219D01*
X156121968Y-95997215D01*
X156121971Y-95997213D01*
X156210922Y-95874780D01*
X156242287Y-95831610D01*
X156335220Y-95649219D01*
X156398477Y-95454534D01*
X156430500Y-95252352D01*
X156430500Y-95047648D01*
X156398477Y-94845466D01*
X156335220Y-94650781D01*
X156335218Y-94650778D01*
X156335218Y-94650776D01*
X156301503Y-94584607D01*
X156242287Y-94468390D01*
X156219952Y-94437648D01*
X156121971Y-94302786D01*
X155977213Y-94158028D01*
X155811614Y-94037715D01*
X155755962Y-94009359D01*
X155718917Y-93990483D01*
X155668123Y-93942511D01*
X155651328Y-93874690D01*
X155673865Y-93808555D01*
X155718917Y-93769516D01*
X155811610Y-93722287D01*
X155852222Y-93692781D01*
X155977213Y-93601971D01*
X155977215Y-93601968D01*
X155977219Y-93601966D01*
X156121966Y-93457219D01*
X156121968Y-93457215D01*
X156121971Y-93457213D01*
X156210922Y-93334780D01*
X156242287Y-93291610D01*
X156335220Y-93109219D01*
X156398477Y-92914534D01*
X156430500Y-92712352D01*
X156430500Y-92507648D01*
X156398477Y-92305466D01*
X156335220Y-92110781D01*
X156335218Y-92110778D01*
X156335218Y-92110776D01*
X156301503Y-92044607D01*
X156242287Y-91928390D01*
X156219952Y-91897648D01*
X156121971Y-91762786D01*
X155977213Y-91618028D01*
X155811614Y-91497715D01*
X155805006Y-91494348D01*
X155718917Y-91450483D01*
X155668123Y-91402511D01*
X155651328Y-91334690D01*
X155673865Y-91268555D01*
X155718917Y-91229516D01*
X155811610Y-91182287D01*
X155852222Y-91152781D01*
X155977213Y-91061971D01*
X155977215Y-91061968D01*
X155977219Y-91061966D01*
X156121966Y-90917219D01*
X156121968Y-90917215D01*
X156121971Y-90917213D01*
X156210922Y-90794780D01*
X156242287Y-90751610D01*
X156335220Y-90569219D01*
X156398477Y-90374534D01*
X156430500Y-90172352D01*
X156430500Y-89967648D01*
X156416144Y-89877007D01*
X156398477Y-89765465D01*
X156335218Y-89570776D01*
X156242419Y-89388650D01*
X156242287Y-89388390D01*
X156219952Y-89357648D01*
X156121971Y-89222786D01*
X155977213Y-89078028D01*
X155811614Y-88957715D01*
X155805006Y-88954348D01*
X155718917Y-88910483D01*
X155668123Y-88862511D01*
X155651328Y-88794690D01*
X155673865Y-88728555D01*
X155718917Y-88689516D01*
X155811610Y-88642287D01*
X155852222Y-88612781D01*
X155977213Y-88521971D01*
X155977215Y-88521968D01*
X155977219Y-88521966D01*
X156121966Y-88377219D01*
X156121968Y-88377215D01*
X156121971Y-88377213D01*
X156210922Y-88254780D01*
X156242287Y-88211610D01*
X156335220Y-88029219D01*
X156398477Y-87834534D01*
X156430500Y-87632352D01*
X156430500Y-87427648D01*
X156398477Y-87225466D01*
X156335220Y-87030781D01*
X156335218Y-87030778D01*
X156335218Y-87030776D01*
X156301503Y-86964607D01*
X156242287Y-86848390D01*
X156219952Y-86817648D01*
X156121971Y-86682786D01*
X155977213Y-86538028D01*
X155811611Y-86417713D01*
X155718369Y-86370203D01*
X155667574Y-86322229D01*
X155650779Y-86254407D01*
X155673317Y-86188273D01*
X155718371Y-86149234D01*
X155811347Y-86101861D01*
X155976894Y-85981582D01*
X155976895Y-85981582D01*
X156121582Y-85836895D01*
X156121582Y-85836894D01*
X156241859Y-85671349D01*
X156334755Y-85489029D01*
X156397990Y-85294413D01*
X156406609Y-85240000D01*
X155563012Y-85240000D01*
X155595925Y-85182993D01*
X155630000Y-85055826D01*
X155630000Y-84924174D01*
X155595925Y-84797007D01*
X155563012Y-84740000D01*
X156406609Y-84740000D01*
X156397990Y-84685586D01*
X156334755Y-84490970D01*
X156253652Y-84331795D01*
X156240756Y-84263126D01*
X156267032Y-84198385D01*
X156324139Y-84158128D01*
X156364137Y-84151500D01*
X190962331Y-84151500D01*
X190962347Y-84151501D01*
X190969943Y-84151501D01*
X191128054Y-84151501D01*
X191128057Y-84151501D01*
X191280785Y-84110577D01*
X191281457Y-84110189D01*
X191282099Y-84110033D01*
X191288297Y-84107466D01*
X191288696Y-84108431D01*
X191349355Y-84093708D01*
X191415385Y-84116552D01*
X191458582Y-84171468D01*
X191465943Y-84236963D01*
X191459500Y-84277648D01*
X191459500Y-84277652D01*
X191459500Y-84482351D01*
X191491522Y-84684534D01*
X191554781Y-84879223D01*
X191647715Y-85061613D01*
X191768028Y-85227213D01*
X191912786Y-85371971D01*
X192067749Y-85484556D01*
X192078390Y-85492287D01*
X192150424Y-85528990D01*
X192171629Y-85539795D01*
X192222425Y-85587770D01*
X192239220Y-85655591D01*
X192216682Y-85721726D01*
X192171629Y-85760765D01*
X192078650Y-85808140D01*
X191913105Y-85928417D01*
X191913104Y-85928417D01*
X191768417Y-86073104D01*
X191768417Y-86073105D01*
X191648140Y-86238650D01*
X191555244Y-86420970D01*
X191492009Y-86615586D01*
X191483391Y-86670000D01*
X192326988Y-86670000D01*
X192294075Y-86727007D01*
X192260000Y-86854174D01*
X192260000Y-86985826D01*
X192294075Y-87112993D01*
X192326988Y-87170000D01*
X191483391Y-87170000D01*
X191492009Y-87224413D01*
X191555244Y-87419029D01*
X191648140Y-87601349D01*
X191768417Y-87766894D01*
X191768417Y-87766895D01*
X191913104Y-87911582D01*
X192078652Y-88031861D01*
X192171628Y-88079234D01*
X192222425Y-88127208D01*
X192239220Y-88195029D01*
X192216683Y-88261164D01*
X192171630Y-88300203D01*
X192078388Y-88347713D01*
X191912786Y-88468028D01*
X191768028Y-88612786D01*
X191647715Y-88778386D01*
X191554781Y-88960776D01*
X191491522Y-89155465D01*
X191459500Y-89357648D01*
X191459500Y-89562351D01*
X191491522Y-89764534D01*
X191554781Y-89959223D01*
X191647715Y-90141613D01*
X191768028Y-90307213D01*
X191912786Y-90451971D01*
X192067749Y-90564556D01*
X192078390Y-90572287D01*
X192169840Y-90618883D01*
X192171080Y-90619515D01*
X192221876Y-90667490D01*
X192238671Y-90735311D01*
X192216134Y-90801446D01*
X192171080Y-90840485D01*
X192078386Y-90887715D01*
X191912786Y-91008028D01*
X191768028Y-91152786D01*
X191647715Y-91318386D01*
X191554781Y-91500776D01*
X191491522Y-91695465D01*
X191459500Y-91897648D01*
X191459500Y-92102351D01*
X191491522Y-92304534D01*
X191554781Y-92499223D01*
X191618691Y-92624653D01*
X191634496Y-92655671D01*
X191647715Y-92681613D01*
X191768028Y-92847213D01*
X191912786Y-92991971D01*
X192067749Y-93104556D01*
X192078390Y-93112287D01*
X192169840Y-93158883D01*
X192171080Y-93159515D01*
X192221876Y-93207490D01*
X192238671Y-93275311D01*
X192216134Y-93341446D01*
X192171080Y-93380485D01*
X192078386Y-93427715D01*
X191912786Y-93548028D01*
X191768028Y-93692786D01*
X191647715Y-93858385D01*
X191640883Y-93871795D01*
X191592909Y-93922591D01*
X191530398Y-93939500D01*
X185159057Y-93939500D01*
X185000943Y-93939500D01*
X184848215Y-93980423D01*
X184848214Y-93980423D01*
X184848212Y-93980424D01*
X184848209Y-93980425D01*
X184798096Y-94009359D01*
X184798095Y-94009360D01*
X184754689Y-94034420D01*
X184711285Y-94059479D01*
X184711282Y-94059481D01*
X184599478Y-94171286D01*
X175604522Y-103166241D01*
X175543199Y-103199726D01*
X175478523Y-103196491D01*
X175436245Y-103182754D01*
X175284291Y-103158687D01*
X175226287Y-103149500D01*
X175013713Y-103149500D01*
X174965042Y-103157208D01*
X174803760Y-103182753D01*
X174601585Y-103248444D01*
X174412179Y-103344951D01*
X174240213Y-103469890D01*
X174089890Y-103620213D01*
X173964949Y-103792182D01*
X173960484Y-103800946D01*
X173912509Y-103851742D01*
X173844688Y-103868536D01*
X173778553Y-103845998D01*
X173739516Y-103800946D01*
X173735050Y-103792182D01*
X173610109Y-103620213D01*
X173459786Y-103469890D01*
X173287820Y-103344951D01*
X173098414Y-103248444D01*
X173098413Y-103248443D01*
X173098412Y-103248443D01*
X172896243Y-103182754D01*
X172896241Y-103182753D01*
X172896240Y-103182753D01*
X172734957Y-103157208D01*
X172686287Y-103149500D01*
X172473713Y-103149500D01*
X172425042Y-103157208D01*
X172263760Y-103182753D01*
X172061585Y-103248444D01*
X171872179Y-103344951D01*
X171700213Y-103469890D01*
X171549890Y-103620213D01*
X171424949Y-103792182D01*
X171420484Y-103800946D01*
X171372509Y-103851742D01*
X171304688Y-103868536D01*
X171238553Y-103845998D01*
X171199516Y-103800946D01*
X171195050Y-103792182D01*
X171070109Y-103620213D01*
X170919786Y-103469890D01*
X170747820Y-103344951D01*
X170558414Y-103248444D01*
X170558413Y-103248443D01*
X170558412Y-103248443D01*
X170356243Y-103182754D01*
X170356241Y-103182753D01*
X170356240Y-103182753D01*
X170194957Y-103157208D01*
X170146287Y-103149500D01*
X169933713Y-103149500D01*
X169885042Y-103157208D01*
X169723760Y-103182753D01*
X169521585Y-103248444D01*
X169332179Y-103344951D01*
X169160213Y-103469890D01*
X169009890Y-103620213D01*
X168884949Y-103792182D01*
X168880484Y-103800946D01*
X168832509Y-103851742D01*
X168764688Y-103868536D01*
X168698553Y-103845998D01*
X168659516Y-103800946D01*
X168655050Y-103792182D01*
X168530109Y-103620213D01*
X168379786Y-103469890D01*
X168207820Y-103344951D01*
X168018414Y-103248444D01*
X168018413Y-103248443D01*
X168018412Y-103248443D01*
X167816243Y-103182754D01*
X167816241Y-103182753D01*
X167816240Y-103182753D01*
X167654957Y-103157208D01*
X167606287Y-103149500D01*
X167393713Y-103149500D01*
X167345042Y-103157208D01*
X167183760Y-103182753D01*
X166981585Y-103248444D01*
X166792179Y-103344951D01*
X166620215Y-103469889D01*
X166506285Y-103583819D01*
X166444962Y-103617303D01*
X166375270Y-103612319D01*
X166319337Y-103570447D01*
X166302422Y-103539470D01*
X166253354Y-103407913D01*
X166253350Y-103407906D01*
X166167190Y-103292812D01*
X166167187Y-103292809D01*
X166052093Y-103206649D01*
X166052086Y-103206645D01*
X165917379Y-103156403D01*
X165917372Y-103156401D01*
X165857844Y-103150000D01*
X165210000Y-103150000D01*
X165210000Y-104066988D01*
X165152993Y-104034075D01*
X165025826Y-104000000D01*
X164894174Y-104000000D01*
X164767007Y-104034075D01*
X164710000Y-104066988D01*
X164710000Y-103150000D01*
X164062155Y-103150000D01*
X164002627Y-103156401D01*
X164002620Y-103156403D01*
X163867913Y-103206645D01*
X163867906Y-103206649D01*
X163752812Y-103292809D01*
X163752809Y-103292812D01*
X163666649Y-103407906D01*
X163666645Y-103407913D01*
X163616403Y-103542620D01*
X163616401Y-103542627D01*
X163610000Y-103602155D01*
X163610000Y-104250000D01*
X164526988Y-104250000D01*
X164494075Y-104307007D01*
X164460000Y-104434174D01*
X164460000Y-104565826D01*
X164494075Y-104692993D01*
X164526988Y-104750000D01*
X163610000Y-104750000D01*
X163610000Y-105397844D01*
X163616401Y-105457372D01*
X163616403Y-105457379D01*
X163666645Y-105592086D01*
X163666649Y-105592093D01*
X163752809Y-105707187D01*
X163752812Y-105707190D01*
X163867906Y-105793350D01*
X163867913Y-105793354D01*
X164002620Y-105843596D01*
X164002627Y-105843598D01*
X164062155Y-105849999D01*
X164062172Y-105850000D01*
X164710000Y-105850000D01*
X164710000Y-104933012D01*
X164767007Y-104965925D01*
X164894174Y-105000000D01*
X165025826Y-105000000D01*
X165152993Y-104965925D01*
X165210000Y-104933012D01*
X165210000Y-105850000D01*
X165857828Y-105850000D01*
X165857844Y-105849999D01*
X165917372Y-105843598D01*
X165917379Y-105843596D01*
X166052086Y-105793354D01*
X166052093Y-105793350D01*
X166167187Y-105707190D01*
X166167190Y-105707187D01*
X166253350Y-105592093D01*
X166253354Y-105592086D01*
X166302422Y-105460529D01*
X166344293Y-105404595D01*
X166409757Y-105380178D01*
X166478030Y-105395030D01*
X166506285Y-105416181D01*
X166620213Y-105530109D01*
X166792179Y-105655048D01*
X166792181Y-105655049D01*
X166792184Y-105655051D01*
X166981588Y-105751557D01*
X167183757Y-105817246D01*
X167393713Y-105850500D01*
X167393714Y-105850500D01*
X167606286Y-105850500D01*
X167606287Y-105850500D01*
X167816243Y-105817246D01*
X167858523Y-105803507D01*
X167928362Y-105801511D01*
X167984521Y-105833756D01*
X177491284Y-115340520D01*
X177491286Y-115340521D01*
X177491290Y-115340524D01*
X177628209Y-115419573D01*
X177628216Y-115419577D01*
X177780943Y-115460501D01*
X177780945Y-115460501D01*
X177946654Y-115460501D01*
X177946670Y-115460500D01*
X191530398Y-115460500D01*
X191597437Y-115480185D01*
X191640883Y-115528205D01*
X191647715Y-115541614D01*
X191768028Y-115707213D01*
X191912786Y-115851971D01*
X192067749Y-115964556D01*
X192078390Y-115972287D01*
X192194607Y-116031503D01*
X192260776Y-116065218D01*
X192260778Y-116065218D01*
X192260781Y-116065220D01*
X192365137Y-116099127D01*
X192455465Y-116128477D01*
X192556557Y-116144488D01*
X192657648Y-116160500D01*
X192657649Y-116160500D01*
X192862351Y-116160500D01*
X192862352Y-116160500D01*
X193064534Y-116128477D01*
X193259219Y-116065220D01*
X193441610Y-115972287D01*
X193534590Y-115904732D01*
X193607213Y-115851971D01*
X193607215Y-115851968D01*
X193607219Y-115851966D01*
X193751966Y-115707219D01*
X193751968Y-115707215D01*
X193751971Y-115707213D01*
X193804732Y-115634590D01*
X193872287Y-115541610D01*
X193965220Y-115359219D01*
X194028477Y-115164534D01*
X194060500Y-114962352D01*
X194060500Y-114757648D01*
X194028477Y-114555466D01*
X194028475Y-114555462D01*
X194028475Y-114555457D01*
X194017545Y-114521817D01*
X194015550Y-114451976D01*
X194051631Y-114392144D01*
X194114332Y-114361316D01*
X194135476Y-114359500D01*
X206598903Y-114359500D01*
X206665942Y-114379185D01*
X206686584Y-114395819D01*
X206705922Y-114415157D01*
X206739407Y-114476480D01*
X206736173Y-114541155D01*
X206731522Y-114555468D01*
X206699500Y-114757648D01*
X206699500Y-114962351D01*
X206731522Y-115164534D01*
X206794781Y-115359223D01*
X206887715Y-115541613D01*
X207008028Y-115707213D01*
X207152786Y-115851971D01*
X207307749Y-115964556D01*
X207318390Y-115972287D01*
X207434607Y-116031503D01*
X207500776Y-116065218D01*
X207500778Y-116065218D01*
X207500781Y-116065220D01*
X207605137Y-116099127D01*
X207695465Y-116128477D01*
X207796557Y-116144488D01*
X207897648Y-116160500D01*
X207897649Y-116160500D01*
X208102351Y-116160500D01*
X208102352Y-116160500D01*
X208304534Y-116128477D01*
X208499219Y-116065220D01*
X208681610Y-115972287D01*
X208774590Y-115904732D01*
X208847213Y-115851971D01*
X208847215Y-115851968D01*
X208847219Y-115851966D01*
X208991966Y-115707219D01*
X208991968Y-115707215D01*
X208991971Y-115707213D01*
X209044732Y-115634590D01*
X209112287Y-115541610D01*
X209205220Y-115359219D01*
X209268477Y-115164534D01*
X209300500Y-114962352D01*
X209300500Y-114757648D01*
X209283132Y-114647993D01*
X209268477Y-114555465D01*
X209222888Y-114415157D01*
X209205220Y-114360781D01*
X209205218Y-114360778D01*
X209205218Y-114360776D01*
X209155149Y-114262511D01*
X209112287Y-114178390D01*
X209082572Y-114137490D01*
X208991971Y-114012786D01*
X208847213Y-113868028D01*
X208681614Y-113747715D01*
X208651254Y-113732246D01*
X208588917Y-113700483D01*
X208538123Y-113652511D01*
X208521328Y-113584690D01*
X208543865Y-113518555D01*
X208588917Y-113479516D01*
X208681610Y-113432287D01*
X208702770Y-113416913D01*
X208847213Y-113311971D01*
X208847215Y-113311968D01*
X208847219Y-113311966D01*
X208991966Y-113167219D01*
X208991968Y-113167215D01*
X208991971Y-113167213D01*
X209050967Y-113086011D01*
X209112287Y-113001610D01*
X209205220Y-112819219D01*
X209268477Y-112624534D01*
X209300500Y-112422352D01*
X209300500Y-112217648D01*
X209281669Y-112098757D01*
X209268477Y-112015465D01*
X209205218Y-111820776D01*
X209155149Y-111722511D01*
X209112287Y-111638390D01*
X209082572Y-111597490D01*
X208991971Y-111472786D01*
X208847213Y-111328028D01*
X208681614Y-111207715D01*
X208662596Y-111198025D01*
X208588917Y-111160483D01*
X208538123Y-111112511D01*
X208521328Y-111044690D01*
X208543865Y-110978555D01*
X208588917Y-110939516D01*
X208681610Y-110892287D01*
X208755613Y-110838521D01*
X208847213Y-110771971D01*
X208847215Y-110771968D01*
X208847219Y-110771966D01*
X208991966Y-110627219D01*
X208991968Y-110627215D01*
X208991971Y-110627213D01*
X209073821Y-110514554D01*
X209112287Y-110461610D01*
X209205220Y-110279219D01*
X209268477Y-110084534D01*
X209300500Y-109882352D01*
X209300500Y-109677648D01*
X209268477Y-109475466D01*
X209205220Y-109280781D01*
X209205218Y-109280778D01*
X209205218Y-109280776D01*
X209147339Y-109167184D01*
X209112287Y-109098390D01*
X209082572Y-109057490D01*
X208991971Y-108932786D01*
X208847213Y-108788028D01*
X208681614Y-108667715D01*
X208675006Y-108664348D01*
X208588917Y-108620483D01*
X208538123Y-108572511D01*
X208521328Y-108504690D01*
X208543865Y-108438555D01*
X208588917Y-108399516D01*
X208681610Y-108352287D01*
X208702770Y-108336913D01*
X208847213Y-108231971D01*
X208847215Y-108231968D01*
X208847219Y-108231966D01*
X208991966Y-108087219D01*
X208991968Y-108087215D01*
X208991971Y-108087213D01*
X209044732Y-108014590D01*
X209112287Y-107921610D01*
X209205220Y-107739219D01*
X209268477Y-107544534D01*
X209300500Y-107342352D01*
X209300500Y-107137648D01*
X209268477Y-106935466D01*
X209267972Y-106933913D01*
X209205218Y-106740776D01*
X209147339Y-106627184D01*
X209112287Y-106558390D01*
X209082572Y-106517490D01*
X208991971Y-106392786D01*
X208847213Y-106248028D01*
X208681614Y-106127715D01*
X208671846Y-106122738D01*
X208588917Y-106080483D01*
X208538123Y-106032511D01*
X208521328Y-105964690D01*
X208543865Y-105898555D01*
X208588917Y-105859516D01*
X208681610Y-105812287D01*
X208763924Y-105752483D01*
X208847213Y-105691971D01*
X208847215Y-105691968D01*
X208847219Y-105691966D01*
X208991966Y-105547219D01*
X208991968Y-105547215D01*
X208991971Y-105547213D01*
X209057243Y-105457372D01*
X209112287Y-105381610D01*
X209205220Y-105199219D01*
X209268477Y-105004534D01*
X209300500Y-104802352D01*
X209300500Y-104597648D01*
X209268477Y-104395466D01*
X209267907Y-104393713D01*
X209205218Y-104200776D01*
X209152951Y-104098198D01*
X209112287Y-104018390D01*
X209082572Y-103977490D01*
X208991971Y-103852786D01*
X208847213Y-103708028D01*
X208681614Y-103587715D01*
X208673968Y-103583819D01*
X208588917Y-103540483D01*
X208538123Y-103492511D01*
X208521328Y-103424690D01*
X208543865Y-103358555D01*
X208588917Y-103319516D01*
X208681610Y-103272287D01*
X208753615Y-103219973D01*
X208847213Y-103151971D01*
X208847215Y-103151968D01*
X208847219Y-103151966D01*
X208991966Y-103007219D01*
X208991968Y-103007215D01*
X208991971Y-103007213D01*
X209084987Y-102879185D01*
X209112287Y-102841610D01*
X209205220Y-102659219D01*
X209268477Y-102464534D01*
X209300500Y-102262352D01*
X209300500Y-102057648D01*
X209268477Y-101855466D01*
X209205220Y-101660781D01*
X209205218Y-101660778D01*
X209205218Y-101660776D01*
X209155149Y-101562511D01*
X209112287Y-101478390D01*
X209082572Y-101437490D01*
X208991971Y-101312786D01*
X208847213Y-101168028D01*
X208681614Y-101047715D01*
X208675006Y-101044348D01*
X208588917Y-101000483D01*
X208538123Y-100952511D01*
X208521328Y-100884690D01*
X208543865Y-100818555D01*
X208588917Y-100779516D01*
X208681610Y-100732287D01*
X208826729Y-100626853D01*
X208847213Y-100611971D01*
X208847215Y-100611968D01*
X208847219Y-100611966D01*
X208991966Y-100467219D01*
X208991968Y-100467215D01*
X208991971Y-100467213D01*
X209044732Y-100394590D01*
X209112287Y-100301610D01*
X209205220Y-100119219D01*
X209268477Y-99924534D01*
X209300500Y-99722352D01*
X209300500Y-99517648D01*
X209279139Y-99382781D01*
X209268477Y-99315465D01*
X209233499Y-99207816D01*
X209205220Y-99120781D01*
X209205218Y-99120778D01*
X209205218Y-99120776D01*
X209152951Y-99018198D01*
X209112287Y-98938390D01*
X209082572Y-98897490D01*
X208991971Y-98772786D01*
X208847213Y-98628028D01*
X208681614Y-98507715D01*
X208627838Y-98480315D01*
X208588917Y-98460483D01*
X208538123Y-98412511D01*
X208521328Y-98344690D01*
X208543865Y-98278555D01*
X208588917Y-98239516D01*
X208681610Y-98192287D01*
X208702770Y-98176913D01*
X208847213Y-98071971D01*
X208847215Y-98071968D01*
X208847219Y-98071966D01*
X208991966Y-97927219D01*
X208991968Y-97927215D01*
X208991971Y-97927213D01*
X209083309Y-97801495D01*
X209112287Y-97761610D01*
X209205220Y-97579219D01*
X209268477Y-97384534D01*
X209300500Y-97182352D01*
X209300500Y-96977648D01*
X209268477Y-96775466D01*
X209205220Y-96580781D01*
X209205218Y-96580778D01*
X209205218Y-96580776D01*
X209155149Y-96482511D01*
X209112287Y-96398390D01*
X209082572Y-96357490D01*
X208991971Y-96232786D01*
X208847213Y-96088028D01*
X208681614Y-95967715D01*
X208675006Y-95964348D01*
X208588917Y-95920483D01*
X208538123Y-95872511D01*
X208521328Y-95804690D01*
X208543865Y-95738555D01*
X208588917Y-95699516D01*
X208681610Y-95652287D01*
X208702770Y-95636913D01*
X208847213Y-95531971D01*
X208847215Y-95531968D01*
X208847219Y-95531966D01*
X208991966Y-95387219D01*
X208991968Y-95387215D01*
X208991971Y-95387213D01*
X209044732Y-95314590D01*
X209112287Y-95221610D01*
X209205220Y-95039219D01*
X209268477Y-94844534D01*
X209300500Y-94642352D01*
X209300500Y-94437648D01*
X209268477Y-94235466D01*
X209205220Y-94040781D01*
X209205218Y-94040778D01*
X209205218Y-94040776D01*
X209155149Y-93942511D01*
X209112287Y-93858390D01*
X209082572Y-93817490D01*
X208991971Y-93692786D01*
X208847213Y-93548028D01*
X208681614Y-93427715D01*
X208675006Y-93424348D01*
X208588917Y-93380483D01*
X208538123Y-93332511D01*
X208521328Y-93264690D01*
X208543865Y-93198555D01*
X208588917Y-93159516D01*
X208681610Y-93112287D01*
X208702770Y-93096913D01*
X208847213Y-92991971D01*
X208847215Y-92991968D01*
X208847219Y-92991966D01*
X208991966Y-92847219D01*
X208991968Y-92847215D01*
X208991971Y-92847213D01*
X209044732Y-92774590D01*
X209112287Y-92681610D01*
X209205220Y-92499219D01*
X209268477Y-92304534D01*
X209300500Y-92102352D01*
X209300500Y-91897648D01*
X209268477Y-91695466D01*
X209205220Y-91500781D01*
X209205218Y-91500778D01*
X209205218Y-91500776D01*
X209125860Y-91345029D01*
X209112287Y-91318390D01*
X209082367Y-91277208D01*
X208991971Y-91152786D01*
X208847213Y-91008028D01*
X208681614Y-90887715D01*
X208675006Y-90884348D01*
X208588917Y-90840483D01*
X208538123Y-90792511D01*
X208521328Y-90724690D01*
X208543865Y-90658555D01*
X208588917Y-90619516D01*
X208681610Y-90572287D01*
X208702770Y-90556913D01*
X208847213Y-90451971D01*
X208847215Y-90451968D01*
X208847219Y-90451966D01*
X208991966Y-90307219D01*
X208991968Y-90307215D01*
X208991971Y-90307213D01*
X209049503Y-90228025D01*
X209112287Y-90141610D01*
X209205220Y-89959219D01*
X209268477Y-89764534D01*
X209300500Y-89562352D01*
X209300500Y-89357648D01*
X209268477Y-89155466D01*
X209205220Y-88960781D01*
X209205218Y-88960778D01*
X209205218Y-88960776D01*
X209138838Y-88830500D01*
X209112287Y-88778390D01*
X209082572Y-88737490D01*
X208991971Y-88612786D01*
X208847213Y-88468028D01*
X208681614Y-88347715D01*
X208675006Y-88344348D01*
X208588917Y-88300483D01*
X208538123Y-88252511D01*
X208521328Y-88184690D01*
X208543865Y-88118555D01*
X208588917Y-88079516D01*
X208681610Y-88032287D01*
X208702770Y-88016913D01*
X208847213Y-87911971D01*
X208847215Y-87911968D01*
X208847219Y-87911966D01*
X208991966Y-87767219D01*
X208991968Y-87767215D01*
X208991971Y-87767213D01*
X209044732Y-87694590D01*
X209112287Y-87601610D01*
X209205220Y-87419219D01*
X209268477Y-87224534D01*
X209300500Y-87022352D01*
X209300500Y-86817648D01*
X209279139Y-86682781D01*
X209268477Y-86615465D01*
X209205218Y-86420776D01*
X209155005Y-86322229D01*
X209112287Y-86238390D01*
X209082367Y-86197208D01*
X208991971Y-86072786D01*
X208847213Y-85928028D01*
X208681614Y-85807715D01*
X208675006Y-85804348D01*
X208588917Y-85760483D01*
X208538123Y-85712511D01*
X208521328Y-85644690D01*
X208543865Y-85578555D01*
X208588917Y-85539516D01*
X208681610Y-85492287D01*
X208702770Y-85476913D01*
X208847213Y-85371971D01*
X208847215Y-85371968D01*
X208847219Y-85371966D01*
X208991966Y-85227219D01*
X208991968Y-85227215D01*
X208991971Y-85227213D01*
X209044732Y-85154590D01*
X209112287Y-85061610D01*
X209205220Y-84879219D01*
X209268477Y-84684534D01*
X209300500Y-84482352D01*
X209300500Y-84277648D01*
X209287946Y-84198385D01*
X209268477Y-84075465D01*
X209217870Y-83919713D01*
X209205220Y-83880781D01*
X209205218Y-83880778D01*
X209205218Y-83880776D01*
X209156305Y-83784780D01*
X209112287Y-83698390D01*
X209104556Y-83687749D01*
X208991971Y-83532786D01*
X208847213Y-83388028D01*
X208681611Y-83267713D01*
X208588369Y-83220203D01*
X208537574Y-83172229D01*
X208520779Y-83104407D01*
X208543317Y-83038273D01*
X208588371Y-82999234D01*
X208681347Y-82951861D01*
X208846894Y-82831582D01*
X208846895Y-82831582D01*
X208991582Y-82686895D01*
X208991582Y-82686894D01*
X209111859Y-82521349D01*
X209204755Y-82339029D01*
X209267990Y-82144413D01*
X209276609Y-82090000D01*
X208433012Y-82090000D01*
X208465925Y-82032993D01*
X208500000Y-81905826D01*
X208500000Y-81774174D01*
X208465925Y-81647007D01*
X208433012Y-81590000D01*
X209276609Y-81590000D01*
X209267990Y-81535586D01*
X209204755Y-81340970D01*
X209111859Y-81158650D01*
X208991582Y-80993105D01*
X208991582Y-80993104D01*
X208846895Y-80848417D01*
X208681349Y-80728140D01*
X208588370Y-80680765D01*
X208537574Y-80632790D01*
X208520779Y-80564969D01*
X208543316Y-80498835D01*
X208588370Y-80459795D01*
X208592788Y-80457544D01*
X208681610Y-80412287D01*
X208702770Y-80396913D01*
X208847213Y-80291971D01*
X208847215Y-80291968D01*
X208847219Y-80291966D01*
X208991966Y-80147219D01*
X208991968Y-80147215D01*
X208991971Y-80147213D01*
X209044732Y-80074590D01*
X209112287Y-79981610D01*
X209205220Y-79799219D01*
X209268477Y-79604534D01*
X209300500Y-79402352D01*
X209300500Y-79197648D01*
X209300500Y-79197647D01*
X209268477Y-78995465D01*
X209228357Y-78871989D01*
X209205220Y-78800781D01*
X209205218Y-78800778D01*
X209205218Y-78800776D01*
X209171503Y-78734607D01*
X209112287Y-78618390D01*
X209104556Y-78607749D01*
X208991971Y-78452786D01*
X208847213Y-78308028D01*
X208681613Y-78187715D01*
X208681612Y-78187714D01*
X208681610Y-78187713D01*
X208624653Y-78158691D01*
X208499223Y-78094781D01*
X208304534Y-78031522D01*
X208129995Y-78003878D01*
X208102352Y-77999500D01*
X207897648Y-77999500D01*
X207841971Y-78008318D01*
X207772678Y-77999363D01*
X207734893Y-77973526D01*
X207227421Y-77466052D01*
X207227414Y-77466046D01*
X207153729Y-77416812D01*
X207153729Y-77416813D01*
X207104491Y-77383913D01*
X206967917Y-77327343D01*
X206967907Y-77327340D01*
X206822920Y-77298500D01*
X206822918Y-77298500D01*
X159457082Y-77298500D01*
X159457080Y-77298500D01*
X159312092Y-77327340D01*
X159312086Y-77327342D01*
X159175508Y-77383914D01*
X159175496Y-77383921D01*
X159126269Y-77416813D01*
X159052588Y-77466044D01*
X159052580Y-77466050D01*
X155395104Y-81123526D01*
X155333781Y-81157011D01*
X155288025Y-81158318D01*
X155232352Y-81149500D01*
X155027648Y-81149500D01*
X155003329Y-81153351D01*
X154825465Y-81181522D01*
X154630776Y-81244781D01*
X154448386Y-81337715D01*
X154282786Y-81458028D01*
X154138028Y-81602786D01*
X154017715Y-81768386D01*
X153924781Y-81950776D01*
X153861522Y-82145465D01*
X153829500Y-82347648D01*
X153829500Y-82552351D01*
X153861523Y-82754535D01*
X153861524Y-82754542D01*
X153872455Y-82788183D01*
X153874450Y-82858024D01*
X153838369Y-82917856D01*
X153775668Y-82948684D01*
X153754524Y-82950500D01*
X141314499Y-82950500D01*
X141247460Y-82930815D01*
X141201705Y-82878011D01*
X141190499Y-82826500D01*
X141190499Y-81602129D01*
X141190498Y-81602123D01*
X141190497Y-81602116D01*
X141184091Y-81542517D01*
X141181461Y-81535466D01*
X141133797Y-81407671D01*
X141133793Y-81407664D01*
X141047547Y-81292455D01*
X141047544Y-81292452D01*
X140932335Y-81206206D01*
X140932328Y-81206202D01*
X140797482Y-81155908D01*
X140797483Y-81155908D01*
X140737883Y-81149501D01*
X140737881Y-81149500D01*
X140737873Y-81149500D01*
X140737864Y-81149500D01*
X139042129Y-81149500D01*
X139042123Y-81149501D01*
X138982516Y-81155908D01*
X138847671Y-81206202D01*
X138847664Y-81206206D01*
X138732455Y-81292452D01*
X138732452Y-81292455D01*
X138646206Y-81407664D01*
X138646202Y-81407671D01*
X138595908Y-81542517D01*
X138589501Y-81602116D01*
X138589501Y-81602123D01*
X138589500Y-81602135D01*
X138589500Y-83297870D01*
X138589501Y-83297876D01*
X138595908Y-83357483D01*
X138646202Y-83492328D01*
X138646206Y-83492335D01*
X138732452Y-83607544D01*
X138732455Y-83607547D01*
X138847664Y-83693793D01*
X138847671Y-83693797D01*
X138859975Y-83698386D01*
X138982517Y-83744091D01*
X139019441Y-83748060D01*
X139083989Y-83774796D01*
X139123838Y-83832188D01*
X139126333Y-83902013D01*
X139090681Y-83962102D01*
X139079071Y-83971666D01*
X139042784Y-83998030D01*
X138898028Y-84142786D01*
X138777715Y-84308386D01*
X138684781Y-84490776D01*
X138621522Y-84685465D01*
X138589500Y-84887648D01*
X138589500Y-85092351D01*
X138621522Y-85294534D01*
X138684781Y-85489223D01*
X138734994Y-85587770D01*
X138769408Y-85655311D01*
X138777715Y-85671613D01*
X138898028Y-85837213D01*
X139042786Y-85981971D01*
X139168224Y-86073105D01*
X139208390Y-86102287D01*
X139299840Y-86148883D01*
X139301080Y-86149515D01*
X139351876Y-86197490D01*
X139368671Y-86265311D01*
X139346134Y-86331446D01*
X139301080Y-86370485D01*
X139208386Y-86417715D01*
X139042786Y-86538028D01*
X138898028Y-86682786D01*
X138777715Y-86848386D01*
X138684781Y-87030776D01*
X138621522Y-87225465D01*
X138589500Y-87427648D01*
X138589500Y-87632351D01*
X138621522Y-87834534D01*
X138684781Y-88029223D01*
X138736385Y-88130500D01*
X138769408Y-88195311D01*
X138777715Y-88211613D01*
X138898028Y-88377213D01*
X139042786Y-88521971D01*
X139167778Y-88612781D01*
X139208390Y-88642287D01*
X139280424Y-88678990D01*
X139301629Y-88689795D01*
X139352425Y-88737770D01*
X139369220Y-88805591D01*
X139346682Y-88871726D01*
X139301629Y-88910765D01*
X139208650Y-88958140D01*
X139043105Y-89078417D01*
X139043104Y-89078417D01*
X138898417Y-89223104D01*
X138898417Y-89223105D01*
X138778140Y-89388650D01*
X138685244Y-89570970D01*
X138622009Y-89765586D01*
X138613391Y-89820000D01*
X139456988Y-89820000D01*
X139424075Y-89877007D01*
X139390000Y-90004174D01*
X139390000Y-90135826D01*
X139424075Y-90262993D01*
X139456988Y-90320000D01*
X138613391Y-90320000D01*
X138622009Y-90374413D01*
X138685244Y-90569029D01*
X138778140Y-90751349D01*
X138898417Y-90916894D01*
X138898417Y-90916895D01*
X139043104Y-91061582D01*
X139208652Y-91181861D01*
X139301628Y-91229234D01*
X139352425Y-91277208D01*
X139369220Y-91345029D01*
X139346683Y-91411164D01*
X139301630Y-91450203D01*
X139208388Y-91497713D01*
X139042786Y-91618028D01*
X138898028Y-91762786D01*
X138777715Y-91928386D01*
X138684781Y-92110776D01*
X138621522Y-92305465D01*
X138589500Y-92507648D01*
X138589500Y-92712351D01*
X138621522Y-92914534D01*
X138684781Y-93109223D01*
X138748691Y-93234653D01*
X138769408Y-93275311D01*
X138777715Y-93291613D01*
X138898028Y-93457213D01*
X139042786Y-93601971D01*
X139167778Y-93692781D01*
X139208390Y-93722287D01*
X139299840Y-93768883D01*
X139301080Y-93769515D01*
X139351876Y-93817490D01*
X139368671Y-93885311D01*
X139346134Y-93951446D01*
X139301080Y-93990485D01*
X139208386Y-94037715D01*
X139042786Y-94158028D01*
X138898028Y-94302786D01*
X138777715Y-94468385D01*
X138770883Y-94481795D01*
X138722909Y-94532591D01*
X138660398Y-94549500D01*
X122100940Y-94549500D01*
X122060019Y-94560464D01*
X122060019Y-94560465D01*
X122022751Y-94570451D01*
X121948214Y-94590423D01*
X121948209Y-94590426D01*
X121811290Y-94669475D01*
X121811282Y-94669481D01*
X121699478Y-94781286D01*
X119314522Y-97166241D01*
X119253199Y-97199726D01*
X119188523Y-97196491D01*
X119146245Y-97182754D01*
X119006272Y-97160584D01*
X118936287Y-97149500D01*
X118723713Y-97149500D01*
X118675042Y-97157208D01*
X118513760Y-97182753D01*
X118311585Y-97248444D01*
X118122179Y-97344951D01*
X117950213Y-97469890D01*
X117799890Y-97620213D01*
X117674949Y-97792182D01*
X117670484Y-97800946D01*
X117622509Y-97851742D01*
X117554688Y-97868536D01*
X117488553Y-97845998D01*
X117449516Y-97800946D01*
X117445050Y-97792182D01*
X117320109Y-97620213D01*
X117169786Y-97469890D01*
X116997820Y-97344951D01*
X116808414Y-97248444D01*
X116808413Y-97248443D01*
X116808412Y-97248443D01*
X116606243Y-97182754D01*
X116606241Y-97182753D01*
X116606240Y-97182753D01*
X116444957Y-97157208D01*
X116396287Y-97149500D01*
X116183713Y-97149500D01*
X116135042Y-97157208D01*
X115973760Y-97182753D01*
X115771585Y-97248444D01*
X115582179Y-97344951D01*
X115410213Y-97469890D01*
X115259890Y-97620213D01*
X115134949Y-97792182D01*
X115130202Y-97801499D01*
X115082227Y-97852293D01*
X115014405Y-97869087D01*
X114948271Y-97846548D01*
X114909234Y-97801495D01*
X114904622Y-97792444D01*
X114779727Y-97620540D01*
X114779723Y-97620535D01*
X114629464Y-97470276D01*
X114629459Y-97470272D01*
X114457557Y-97345379D01*
X114268215Y-97248903D01*
X114066124Y-97183241D01*
X114000000Y-97172768D01*
X114000000Y-98066988D01*
X113942993Y-98034075D01*
X113815826Y-98000000D01*
X113684174Y-98000000D01*
X113557007Y-98034075D01*
X113500000Y-98066988D01*
X113500000Y-97172768D01*
X113499999Y-97172768D01*
X113433875Y-97183241D01*
X113231784Y-97248903D01*
X113042442Y-97345379D01*
X112870541Y-97470271D01*
X112756865Y-97583947D01*
X112695542Y-97617431D01*
X112625850Y-97612447D01*
X112569917Y-97570575D01*
X112553002Y-97539598D01*
X112503797Y-97407671D01*
X112503793Y-97407664D01*
X112417547Y-97292455D01*
X112417544Y-97292452D01*
X112302335Y-97206206D01*
X112302328Y-97206202D01*
X112167482Y-97155908D01*
X112167483Y-97155908D01*
X112107883Y-97149501D01*
X112107881Y-97149500D01*
X112107873Y-97149500D01*
X112107864Y-97149500D01*
X110312129Y-97149500D01*
X110312123Y-97149501D01*
X110252516Y-97155908D01*
X110117671Y-97206202D01*
X110117664Y-97206206D01*
X110002455Y-97292452D01*
X110002452Y-97292455D01*
X109916206Y-97407664D01*
X109916202Y-97407671D01*
X109865908Y-97542517D01*
X109859501Y-97602116D01*
X109859500Y-97602135D01*
X98000500Y-97602135D01*
X98000500Y-75393713D01*
X101149500Y-75393713D01*
X101149500Y-75606286D01*
X101182753Y-75816239D01*
X101248444Y-76018414D01*
X101344951Y-76207820D01*
X101469890Y-76379786D01*
X101620213Y-76530109D01*
X101792179Y-76655048D01*
X101792181Y-76655049D01*
X101792184Y-76655051D01*
X101981588Y-76751557D01*
X102183757Y-76817246D01*
X102393713Y-76850500D01*
X102393714Y-76850500D01*
X102606286Y-76850500D01*
X102606287Y-76850500D01*
X102816243Y-76817246D01*
X103018412Y-76751557D01*
X103207816Y-76655051D01*
X103229789Y-76639086D01*
X103379786Y-76530109D01*
X103379788Y-76530106D01*
X103379792Y-76530104D01*
X103530104Y-76379792D01*
X103530106Y-76379788D01*
X103530109Y-76379786D01*
X103655048Y-76207820D01*
X103655047Y-76207820D01*
X103655051Y-76207816D01*
X103751557Y-76018412D01*
X103817246Y-75816243D01*
X103850500Y-75606287D01*
X103850500Y-75393713D01*
X103817246Y-75183757D01*
X103751557Y-74981588D01*
X103655051Y-74792184D01*
X103655049Y-74792181D01*
X103655048Y-74792179D01*
X103530109Y-74620213D01*
X103379786Y-74469890D01*
X103207820Y-74344951D01*
X103018414Y-74248444D01*
X103018413Y-74248443D01*
X103018412Y-74248443D01*
X102816243Y-74182754D01*
X102816241Y-74182753D01*
X102816240Y-74182753D01*
X102634692Y-74153999D01*
X102606287Y-74149500D01*
X102393713Y-74149500D01*
X102365308Y-74153999D01*
X102183760Y-74182753D01*
X101981585Y-74248444D01*
X101792179Y-74344951D01*
X101620213Y-74469890D01*
X101469890Y-74620213D01*
X101344951Y-74792179D01*
X101248444Y-74981585D01*
X101182753Y-75183760D01*
X101149500Y-75393713D01*
X98000500Y-75393713D01*
X98000500Y-72602135D01*
X109859500Y-72602135D01*
X109859500Y-74397870D01*
X109859501Y-74397876D01*
X109865908Y-74457483D01*
X109916202Y-74592328D01*
X109916206Y-74592335D01*
X110002452Y-74707544D01*
X110002455Y-74707547D01*
X110117664Y-74793793D01*
X110117671Y-74793797D01*
X110252517Y-74844091D01*
X110252516Y-74844091D01*
X110259444Y-74844835D01*
X110312127Y-74850500D01*
X112107872Y-74850499D01*
X112167483Y-74844091D01*
X112302331Y-74793796D01*
X112417546Y-74707546D01*
X112503796Y-74592331D01*
X112552810Y-74460916D01*
X112594681Y-74404984D01*
X112660145Y-74380566D01*
X112728418Y-74395417D01*
X112756673Y-74416569D01*
X112870213Y-74530109D01*
X113042179Y-74655048D01*
X113042181Y-74655049D01*
X113042184Y-74655051D01*
X113231588Y-74751557D01*
X113433757Y-74817246D01*
X113643713Y-74850500D01*
X113643714Y-74850500D01*
X113856286Y-74850500D01*
X113856287Y-74850500D01*
X114066243Y-74817246D01*
X114268412Y-74751557D01*
X114457816Y-74655051D01*
X114544138Y-74592335D01*
X114629786Y-74530109D01*
X114629788Y-74530106D01*
X114629792Y-74530104D01*
X114780104Y-74379792D01*
X114780106Y-74379788D01*
X114780109Y-74379786D01*
X114905048Y-74207820D01*
X114905047Y-74207820D01*
X114905051Y-74207816D01*
X114909514Y-74199054D01*
X114957488Y-74148259D01*
X115025308Y-74131463D01*
X115091444Y-74153999D01*
X115130486Y-74199056D01*
X115134951Y-74207820D01*
X115259890Y-74379786D01*
X115410213Y-74530109D01*
X115582179Y-74655048D01*
X115582181Y-74655049D01*
X115582184Y-74655051D01*
X115771588Y-74751557D01*
X115973757Y-74817246D01*
X116183713Y-74850500D01*
X116183714Y-74850500D01*
X116396286Y-74850500D01*
X116396287Y-74850500D01*
X116606243Y-74817246D01*
X116808412Y-74751557D01*
X116997816Y-74655051D01*
X117084138Y-74592335D01*
X117169786Y-74530109D01*
X117169788Y-74530106D01*
X117169792Y-74530104D01*
X117320104Y-74379792D01*
X117320106Y-74379788D01*
X117320109Y-74379786D01*
X117445048Y-74207820D01*
X117445047Y-74207820D01*
X117445051Y-74207816D01*
X117449514Y-74199054D01*
X117497488Y-74148259D01*
X117565308Y-74131463D01*
X117631444Y-74153999D01*
X117670486Y-74199056D01*
X117674951Y-74207820D01*
X117799890Y-74379786D01*
X117950213Y-74530109D01*
X118122179Y-74655048D01*
X118122181Y-74655049D01*
X118122184Y-74655051D01*
X118311588Y-74751557D01*
X118513757Y-74817246D01*
X118723713Y-74850500D01*
X118723714Y-74850500D01*
X118936286Y-74850500D01*
X118936287Y-74850500D01*
X119146243Y-74817246D01*
X119348412Y-74751557D01*
X119537816Y-74655051D01*
X119624138Y-74592335D01*
X119709786Y-74530109D01*
X119709788Y-74530106D01*
X119709792Y-74530104D01*
X119860104Y-74379792D01*
X119860106Y-74379788D01*
X119860109Y-74379786D01*
X119985048Y-74207820D01*
X119985047Y-74207820D01*
X119985051Y-74207816D01*
X119989514Y-74199054D01*
X120037488Y-74148259D01*
X120105308Y-74131463D01*
X120171444Y-74153999D01*
X120210486Y-74199056D01*
X120214951Y-74207820D01*
X120339890Y-74379786D01*
X120490213Y-74530109D01*
X120662179Y-74655048D01*
X120662181Y-74655049D01*
X120662184Y-74655051D01*
X120851588Y-74751557D01*
X121053757Y-74817246D01*
X121263713Y-74850500D01*
X121263714Y-74850500D01*
X121476286Y-74850500D01*
X121476287Y-74850500D01*
X121686243Y-74817246D01*
X121888412Y-74751557D01*
X122077816Y-74655051D01*
X122164138Y-74592335D01*
X122249786Y-74530109D01*
X122249788Y-74530106D01*
X122249792Y-74530104D01*
X122400104Y-74379792D01*
X122400106Y-74379788D01*
X122400109Y-74379786D01*
X122525048Y-74207820D01*
X122525047Y-74207820D01*
X122525051Y-74207816D01*
X122621557Y-74018412D01*
X122687246Y-73816243D01*
X122720500Y-73606287D01*
X122720500Y-73393713D01*
X122687246Y-73183757D01*
X122621557Y-72981588D01*
X122576783Y-72893713D01*
X215149500Y-72893713D01*
X215149500Y-73106286D01*
X215182753Y-73316239D01*
X215248444Y-73518414D01*
X215344951Y-73707820D01*
X215469890Y-73879786D01*
X215620213Y-74030109D01*
X215792179Y-74155048D01*
X215792181Y-74155049D01*
X215792184Y-74155051D01*
X215981588Y-74251557D01*
X216183757Y-74317246D01*
X216393713Y-74350500D01*
X216393714Y-74350500D01*
X216606286Y-74350500D01*
X216606287Y-74350500D01*
X216816243Y-74317246D01*
X217018412Y-74251557D01*
X217207816Y-74155051D01*
X217240282Y-74131463D01*
X217379786Y-74030109D01*
X217379788Y-74030106D01*
X217379792Y-74030104D01*
X217530104Y-73879792D01*
X217530106Y-73879788D01*
X217530109Y-73879786D01*
X217655048Y-73707820D01*
X217655047Y-73707820D01*
X217655051Y-73707816D01*
X217751557Y-73518412D01*
X217817246Y-73316243D01*
X217850500Y-73106287D01*
X217850500Y-72893713D01*
X217817246Y-72683757D01*
X217751557Y-72481588D01*
X217655051Y-72292184D01*
X217655049Y-72292181D01*
X217655048Y-72292179D01*
X217530109Y-72120213D01*
X217379786Y-71969890D01*
X217207820Y-71844951D01*
X217018414Y-71748444D01*
X217018413Y-71748443D01*
X217018412Y-71748443D01*
X216816243Y-71682754D01*
X216816241Y-71682753D01*
X216816240Y-71682753D01*
X216654957Y-71657208D01*
X216606287Y-71649500D01*
X216393713Y-71649500D01*
X216345042Y-71657208D01*
X216183760Y-71682753D01*
X215981585Y-71748444D01*
X215792179Y-71844951D01*
X215620213Y-71969890D01*
X215469890Y-72120213D01*
X215344951Y-72292179D01*
X215248444Y-72481585D01*
X215182753Y-72683760D01*
X215149500Y-72893713D01*
X122576783Y-72893713D01*
X122525051Y-72792184D01*
X122517023Y-72781134D01*
X122400109Y-72620213D01*
X122249786Y-72469890D01*
X122077820Y-72344951D01*
X121888414Y-72248444D01*
X121888413Y-72248443D01*
X121888412Y-72248443D01*
X121686243Y-72182754D01*
X121686241Y-72182753D01*
X121686240Y-72182753D01*
X121524957Y-72157208D01*
X121476287Y-72149500D01*
X121263713Y-72149500D01*
X121215042Y-72157208D01*
X121053760Y-72182753D01*
X120851585Y-72248444D01*
X120662179Y-72344951D01*
X120490213Y-72469890D01*
X120339890Y-72620213D01*
X120214949Y-72792182D01*
X120210484Y-72800946D01*
X120162509Y-72851742D01*
X120094688Y-72868536D01*
X120028553Y-72845998D01*
X119989516Y-72800946D01*
X119985050Y-72792182D01*
X119860109Y-72620213D01*
X119709786Y-72469890D01*
X119537820Y-72344951D01*
X119348414Y-72248444D01*
X119348413Y-72248443D01*
X119348412Y-72248443D01*
X119146243Y-72182754D01*
X119146241Y-72182753D01*
X119146240Y-72182753D01*
X118984957Y-72157208D01*
X118936287Y-72149500D01*
X118723713Y-72149500D01*
X118675042Y-72157208D01*
X118513760Y-72182753D01*
X118311585Y-72248444D01*
X118122179Y-72344951D01*
X117950213Y-72469890D01*
X117799890Y-72620213D01*
X117674949Y-72792182D01*
X117670484Y-72800946D01*
X117622509Y-72851742D01*
X117554688Y-72868536D01*
X117488553Y-72845998D01*
X117449516Y-72800946D01*
X117445050Y-72792182D01*
X117320109Y-72620213D01*
X117169786Y-72469890D01*
X116997820Y-72344951D01*
X116808414Y-72248444D01*
X116808413Y-72248443D01*
X116808412Y-72248443D01*
X116606243Y-72182754D01*
X116606241Y-72182753D01*
X116606240Y-72182753D01*
X116444957Y-72157208D01*
X116396287Y-72149500D01*
X116183713Y-72149500D01*
X116135042Y-72157208D01*
X115973760Y-72182753D01*
X115771585Y-72248444D01*
X115582179Y-72344951D01*
X115410213Y-72469890D01*
X115259890Y-72620213D01*
X115134949Y-72792182D01*
X115130484Y-72800946D01*
X115082509Y-72851742D01*
X115014688Y-72868536D01*
X114948553Y-72845998D01*
X114909516Y-72800946D01*
X114905050Y-72792182D01*
X114780109Y-72620213D01*
X114629786Y-72469890D01*
X114457820Y-72344951D01*
X114268414Y-72248444D01*
X114268413Y-72248443D01*
X114268412Y-72248443D01*
X114066243Y-72182754D01*
X114066241Y-72182753D01*
X114066240Y-72182753D01*
X113904957Y-72157208D01*
X113856287Y-72149500D01*
X113643713Y-72149500D01*
X113595042Y-72157208D01*
X113433760Y-72182753D01*
X113231585Y-72248444D01*
X113042179Y-72344951D01*
X112870215Y-72469889D01*
X112756673Y-72583431D01*
X112695350Y-72616915D01*
X112625658Y-72611931D01*
X112569725Y-72570059D01*
X112552810Y-72539082D01*
X112503797Y-72407671D01*
X112503793Y-72407664D01*
X112417547Y-72292455D01*
X112417544Y-72292452D01*
X112302335Y-72206206D01*
X112302328Y-72206202D01*
X112167482Y-72155908D01*
X112167483Y-72155908D01*
X112107883Y-72149501D01*
X112107881Y-72149500D01*
X112107873Y-72149500D01*
X112107864Y-72149500D01*
X110312129Y-72149500D01*
X110312123Y-72149501D01*
X110252516Y-72155908D01*
X110117671Y-72206202D01*
X110117664Y-72206206D01*
X110002455Y-72292452D01*
X110002452Y-72292455D01*
X109916206Y-72407664D01*
X109916202Y-72407671D01*
X109865908Y-72542517D01*
X109859501Y-72602116D01*
X109859500Y-72602135D01*
X98000500Y-72602135D01*
X98000500Y-72503750D01*
X98000726Y-72496263D01*
X98018271Y-72206205D01*
X98020076Y-72191340D01*
X98021650Y-72182754D01*
X98071780Y-71909198D01*
X98075364Y-71894664D01*
X98120928Y-71748444D01*
X98160699Y-71620812D01*
X98165997Y-71606842D01*
X98283727Y-71345258D01*
X98290680Y-71332012D01*
X98330959Y-71265381D01*
X98439075Y-71086534D01*
X98447567Y-71074230D01*
X98624481Y-70848417D01*
X98634396Y-70837226D01*
X98837226Y-70634396D01*
X98848417Y-70624481D01*
X99074230Y-70447567D01*
X99086534Y-70439075D01*
X99332012Y-70290680D01*
X99345258Y-70283727D01*
X99606842Y-70165997D01*
X99620812Y-70160699D01*
X99894668Y-70075362D01*
X99909198Y-70071780D01*
X100191344Y-70020075D01*
X100206201Y-70018271D01*
X100496264Y-70000726D01*
X100503751Y-70000500D01*
X100565892Y-70000500D01*
X217434108Y-70000500D01*
X217496249Y-70000500D01*
X217503736Y-70000726D01*
G37*
%TD.AperFunction*%
%TD*%
M02*
